<svg xmlns="http://www.w3.org/2000/svg" xmlns:xlink="http://www.w3.org/1999/xlink" xmlns:lucid="lucid" width="1833.77" height="5268.11"><g transform="translate(2284.7743055555557 2142.8510751430676)" lucid:page-tab-id="0_0"><path d="M-2282.77-2086.6a6 6 0 0 1 6-6H-459a6 6 0 0 1 6 6v5203.86a6 6 0 0 1-6 6h-1817.77a6 6 0 0 1-6-6z" stroke="#000" stroke-width="4" fill-opacity="0"/><path d="M-2282.77-2134.85a6 6 0 0 1 6-6h197.28a6 6 0 0 1 6 6v24.25a6 6 0 0 1-6 6h-197.27a6 6 0 0 1-6-6z" stroke="#000" stroke-width="4"/><use xlink:href="#a" transform="matrix(1,0,0,1,-2274.7743055555557,-2132.8510751430676) translate(0 16.589501953125)"/><use xlink:href="#b" transform="matrix(1,0,0,1,-2274.7743055555557,-2132.8510751430676) translate(83.19322265625 16.589501953125)"/><use xlink:href="#c" transform="matrix(1,0,0,1,-2274.7743055555557,-2132.8510751430676) translate(137.23857421875002 16.589501953125)"/><use xlink:href="#d" transform="matrix(1,0,0,1,-2274.7743055555557,-2132.8510751430676) translate(161.95623046875002 16.589501953125)"/><path d="M-2202.77-2006.6a6 6 0 0 1 6-6H-539a6 6 0 0 1 6 6v5043.86a6 6 0 0 1-6 6h-1657.77a6 6 0 0 1-6-6z" stroke="#fc9432" stroke-width="4" fill-opacity="0"/><path d="M-2202.77-2054.85a6 6 0 0 1 6-6h77.66a6 6 0 0 1 6 6v24.25a6 6 0 0 1-6 6h-77.67a6 6 0 0 1-6-6z" stroke="#fc9432" stroke-width="4" fill="#fc9432"/><use xlink:href="#e" transform="matrix(1,0,0,1,-2194.7743055555557,-2052.8510751430676) translate(0 16.589501953125)"/><path d="M-2092.23-1524.97a6 6 0 0 1 6-6h119.66a6 6 0 0 1 6 6v87.16a6 6 0 0 1-6 6h-119.66a6 6 0 0 1-6-6z" stroke="#1071e5" stroke-width="4" fill="#cfe4ff"/><use xlink:href="#f" transform="matrix(1,0,0,1,-2080.2332116632515,-1518.9673015662502) translate(22.413628472222225 29.84027777777778)"/><use xlink:href="#g" transform="matrix(1,0,0,1,-2080.2332116632515,-1518.9673015662502) translate(13.347873263888893 62.10590277777778)"/><path d="M-2113.66 2206.36a6 6 0 0 1 6-6h162.5a6 6 0 0 1 6 6v119.42a6 6 0 0 1-6 6h-162.5a6 6 0 0 1-6-6z" stroke="#1071e5" stroke-width="4" fill="#cfe4ff"/><use xlink:href="#f" transform="matrix(1,0,0,1,-2101.655470884563,2212.362806029772) translate(43.91362847222223 29.96527777777778)"/><use xlink:href="#h" transform="matrix(1,0,0,1,-2101.655470884563,2212.362806029772) translate(33.83875868055556 62.23090277777778)"/><use xlink:href="#i" transform="matrix(1,0,0,1,-2101.655470884563,2212.362806029772) translate(30.27973090277778 94.49652777777777)"/><path d="M-2122.77 188.94a6 6 0 0 1 6-6h180.74a6 6 0 0 1 6 6V322.1a6 6 0 0 1-6 6h-180.74a6 6 0 0 1-6-6z" stroke="#1071e5" stroke-width="4" fill="#cfe4ff"/><use xlink:href="#j" transform="matrix(1,0,0,1,-2110.7743055555557,194.93546549479242) translate(8.127387152777786 36.77777777777778)"/><use xlink:href="#h" transform="matrix(1,0,0,1,-2110.7743055555557,194.93546549479242) translate(77.55013020833333 36.77777777777778)"/><use xlink:href="#k" transform="matrix(1,0,0,1,-2110.7743055555557,194.93546549479242) translate(8.876085069444443 69.04340277777777)"/><use xlink:href="#l" transform="matrix(1,0,0,1,-2110.7743055555557,194.93546549479242) translate(128.17947048611111 69.04340277777777)"/><use xlink:href="#m" transform="matrix(1,0,0,1,-2110.7743055555557,194.93546549479242) translate(26.88823784722222 101.30902777777777)"/><path d="M-794.85 2849.64a6 6 0 0 1 6-6H-642a6 6 0 0 1 6 6v107.62a6 6 0 0 1-6 6h-146.85a6 6 0 0 1-6-6z" stroke="#1071e5" stroke-width="4" fill="#cfe4ff"/><use xlink:href="#n" transform="matrix(1,0,0,1,-782.8511284722222,2855.6451544951356) translate(8.081597222222221 56.02777777777778)"/><path d="M-781.26-110.22a6 6 0 0 1 6-6h119.66a6 6 0 0 1 6 6v87.16a6 6 0 0 1-6 6h-119.66a6 6 0 0 1-6-6z" stroke="#1071e5" stroke-width="4" fill="#cfe4ff"/><use xlink:href="#o" transform="matrix(1,0,0,1,-769.2642446493626,-104.21818033854106) translate(22.29969618055556 29.84027777777778)"/><use xlink:href="#p" transform="matrix(1,0,0,1,-769.2642446493626,-104.21818033854106) translate(19.87456597222222 62.10590277777778)"/><path d="M-789.7 2537.78a6 6 0 0 1 6-6h136.54a6 6 0 0 1 6 6v99.86a6 6 0 0 1-6 6H-783.7a6 6 0 0 1-6-6z" stroke="#1071e5" stroke-width="4" fill="#cfe4ff"/><use xlink:href="#q" transform="matrix(1,0,0,1,-777.7024739583333,2543.782076863105) translate(8.230251736111107 35.96527777777778)"/><use xlink:href="#r" transform="matrix(1,0,0,1,-777.7024739583333,2543.782076863105) translate(3.721788194444443 68.23090277777777)"/><path d="M-1661.8 197.18a6 6 0 0 1 6-6h158.85a6 6 0 0 1 6 6v116.67a6 6 0 0 1-6 6h-158.86a6 6 0 0 1-6-6z" stroke="#1071e5" stroke-width="4" fill="#cfe4ff"/><use xlink:href="#s" transform="matrix(1,0,0,1,-1649.8096788194446,203.17643396615722) translate(1.4079861111111143 44.49652777777778)"/><use xlink:href="#t" transform="matrix(1,0,0,1,-1649.8096788194446,203.17643396615722) translate(17.754557291666664 76.76215277777777)"/><path d="M-1581.18-1593.03a8 8 0 0 1 9.6 0l144.05 108.04a4.5 4.5 0 0 1 0 7.2l-144.05 108.05a8 8 0 0 1-9.6 0l-144.05-108.04a4.5 4.5 0 0 1 0-7.2z" stroke="#d916a8" stroke-width="4" fill="#ff80df"/><use xlink:href="#u" transform="matrix(1,0,0,1,-1725.0290798611113,-1591.6272950558337) translate(97.89736111111111 102.24457465277777)"/><use xlink:href="#v" transform="matrix(1,0,0,1,-1725.0290798611113,-1591.6272950558337) translate(66.07227430555557 134.51019965277777)"/><path d="M-1210.57-1926.6a6 6 0 0 1 6-6h168.55a6 6 0 0 1 6 6v123.97a6 6 0 0 1-6 6h-168.55a6 6 0 0 1-6-6z" stroke="#1071e5" stroke-width="4" fill="#cfe4ff"/><use xlink:href="#w" transform="matrix(1,0,0,1,-1198.5726996527778,-1920.5963290493178) translate(49.376736111111114 47.77777777777778)"/><use xlink:href="#x" transform="matrix(1,0,0,1,-1198.5726996527778,-1920.5963290493178) translate(8.225477430555557 80.04340277777777)"/><path d="M-1222.73-824.18a6 6 0 0 1 6-6h192.87a6 6 0 0 1 6 6v142.28a6 6 0 0 1-6 6h-192.87a6 6 0 0 1-6-6z" stroke="#1071e5" stroke-width="4" fill="#cfe4ff"/><use xlink:href="#y" transform="matrix(1,0,0,1,-1210.7309027777778,-818.1846282498493) translate(72.73741319444444 41.22894965277778)"/><use xlink:href="#z" transform="matrix(1,0,0,1,-1210.7309027777778,-818.1846282498493) translate(8.067274305555557 73.49457465277777)"/><use xlink:href="#A" transform="matrix(1,0,0,1,-1210.7309027777778,-818.1846282498493) translate(15.689887152777786 105.76019965277777)"/><use xlink:href="#B" transform="matrix(1,0,0,1,-1210.7309027777778,-818.1846282498493) translate(48.02495659722223 105.76019965277777)"/><use xlink:href="#C" transform="matrix(1,0,0,1,-1210.7309027777778,-818.1846282498493) translate(126.28016493055554 105.76019965277777)"/><path d="M-1210.57-1160.15a6 6 0 0 1 6-6h168.55a6 6 0 0 1 6 6v123.97a6 6 0 0 1-6 6h-168.55a6 6 0 0 1-6-6z" stroke="#1071e5" stroke-width="4" fill="#cfe4ff"/><use xlink:href="#D" transform="matrix(1,0,0,1,-1198.5726996527778,-1154.1536622433337) translate(48.21571180555556 47.77777777777778)"/><use xlink:href="#x" transform="matrix(1,0,0,1,-1198.5726996527778,-1154.1536622433337) translate(8.225477430555557 80.04340277777777)"/><path d="M-1210.57-1543.38a6 6 0 0 1 6-6h168.55a6 6 0 0 1 6 6v123.97a6 6 0 0 1-6 6h-168.55a6 6 0 0 1-6-6z" stroke="#1071e5" stroke-width="4" fill="#cfe4ff"/><use xlink:href="#E" transform="matrix(1,0,0,1,-1198.5726996527778,-1537.3749956463257) translate(37.028645833333336 47.77777777777778)"/><use xlink:href="#x" transform="matrix(1,0,0,1,-1198.5726996527778,-1537.3749956463257) translate(8.225477430555557 80.04340277777777)"/><path d="M-817.87-1552.53a6 6 0 0 1 6-6H-619a6 6 0 0 1 6 6v142.28a6 6 0 0 1-6 6h-192.87a6 6 0 0 1-6-6z" stroke="#1071e5" stroke-width="4" fill="#cfe4ff"/><use xlink:href="#F" transform="matrix(1,0,0,1,-805.8654513888889,-1546.5311733083627) translate(31.293185763888893 41.22894965277778)"/><use xlink:href="#z" transform="matrix(1,0,0,1,-805.8654513888889,-1546.5311733083627) translate(8.067274305555557 73.49457465277777)"/><use xlink:href="#A" transform="matrix(1,0,0,1,-805.8654513888889,-1546.5311733083627) translate(35.861328125 105.76019965277777)"/><use xlink:href="#G" transform="matrix(1,0,0,1,-805.8654513888889,-1546.5311733083627) translate(68.19639756944444 105.76019965277777)"/><use xlink:href="#H" transform="matrix(1,0,0,1,-805.8654513888889,-1546.5311733083627) translate(92.306640625 105.76019965277777)"/><path d="M-1581.18 871.05a8 8 0 0 1 9.6 0l96.3 72.23a4.5 4.5 0 0 1 0 7.2l-96.3 72.24a8 8 0 0 1-9.6 0l-96.3-72.24a4.5 4.5 0 0 1 0-7.2z" stroke="#d916a8" stroke-width="4" fill="#ff80df"/><use xlink:href="#u" transform="matrix(1,0,0,1,-1677.2914496527778,872.449488342872) translate(50.39736111111112 66.34418402777777)"/><use xlink:href="#I" transform="matrix(1,0,0,1,-1677.2914496527778,872.449488342872) translate(73.87283854166668 98.60980902777777)"/><path d="M-787.83 1232.32a6 6 0 0 1 6-6h132.8a6 6 0 0 1 6 6v97.04a6 6 0 0 1-6 6h-132.8a6 6 0 0 1-6-6z" stroke="#1071e5" stroke-width="4" fill="#cfe4ff"/><use xlink:href="#J" transform="matrix(1,0,0,1,-775.8307291666667,1238.316675842872) translate(8.101996527777771 34.96527777777778)"/><use xlink:href="#K" transform="matrix(1,0,0,1,-775.8307291666667,1238.316675842872) translate(20.26019965277778 67.23090277777777)"/><path d="M-790.38 896.44a6 6 0 0 1 6-6h137.9a6 6 0 0 1 6 6v100.88a6 6 0 0 1-6 6h-137.9a6 6 0 0 1-6-6z" stroke="#1071e5" stroke-width="4" fill="#cfe4ff"/><use xlink:href="#J" transform="matrix(1,0,0,1,-778.3806423611111,902.4408238624192) translate(10.601996527777771 36.47699652777778)"/><use xlink:href="#L" transform="matrix(1,0,0,1,-778.3806423611111,902.4408238624192) translate(1.389756944444457 68.74262152777777)"/><path d="M-802.7 1874.94a6 6 0 0 1 6-6h162.52a6 6 0 0 1 6 6v119.42a6 6 0 0 1-6 6h-162.5a6 6 0 0 1-6-6z" stroke="#1071e5" stroke-width="4" fill="#cfe4ff"/><use xlink:href="#J" transform="matrix(1,0,0,1,-790.686503870674,1880.9435351964385) translate(23.10199652777777 45.99652777777778)"/><use xlink:href="#M" transform="matrix(1,0,0,1,-790.686503870674,1880.9435351964385) translate(8.198567708333343 78.26215277777777)"/><use xlink:href="#N" transform="matrix(1,0,0,1,-790.686503870674,1880.9435351964385) translate(55.72460937500001 78.26215277777777)"/><use xlink:href="#I" transform="matrix(1,0,0,1,-790.686503870674,1880.9435351964385) translate(88.537109375 78.26215277777777)"/><path d="M-1581.18-472.3a8 8 0 0 1 9.6 0l96.86 72.64a4.5 4.5 0 0 1 0 7.2l-96.86 72.64a8 8 0 0 1-9.6 0l-96.86-72.64a4.5 4.5 0 0 1 0-7.2z" stroke="#d916a8" stroke-width="4" fill="#ff80df"/><use xlink:href="#O" transform="matrix(1,0,0,1,-1677.8366970486113,-470.90323893229106) translate(50.53386284722222 66.93793402777777)"/><use xlink:href="#P" transform="matrix(1,0,0,1,-1677.8366970486113,-470.90323893229106) translate(52.19401909722222 99.20355902777777)"/><path d="M-811.07-462.1a6 6 0 0 1 6-6h179.28a6 6 0 0 1 6 6v132.06a6 6 0 0 1-6 6h-179.27a6 6 0 0 1-6-6z" stroke="#1071e5" stroke-width="4" fill="#cfe4ff"/><use xlink:href="#Q" transform="matrix(1,0,0,1,-799.0729166666667,-456.08603863918825) translate(0.8999565972222285 36.18012152777778)"/><use xlink:href="#R" transform="matrix(1,0,0,1,-799.0729166666667,-456.08603863918825) translate(42.675130208333336 36.18012152777778)"/><use xlink:href="#S" transform="matrix(1,0,0,1,-799.0729166666667,-456.08603863918825) translate(140.53754340277777 36.18012152777778)"/><use xlink:href="#T" transform="matrix(1,0,0,1,-799.0729166666667,-456.08603863918825) translate(18.103732638888886 68.44574652777777)"/><use xlink:href="#U" transform="matrix(1,0,0,1,-799.0729166666667,-456.08603863918825) translate(55.69596354166667 100.71137152777777)"/><path d="M-797.24 1546.54a6 6 0 0 1 6-6h151.62a6 6 0 0 1 6 6v111.22a6 6 0 0 1-6 6h-151.62a6 6 0 0 1-6-6z" stroke="#1071e5" stroke-width="4" fill="#cfe4ff"/><use xlink:href="#V" transform="matrix(1,0,0,1,-785.2437065972222,1552.5413200472617) translate(8.189019097222229 41.84027777777778)"/><use xlink:href="#W" transform="matrix(1,0,0,1,-785.2437065972222,1552.5413200472617) translate(35.18012152777778 74.10590277777777)"/><path d="M-2118.93 534.1a6 6 0 0 1 6-6h173.05a6 6 0 0 1 6 6v127.35a6 6 0 0 1-6 6h-173.05a6 6 0 0 1-6-6z" stroke="#1071e5" stroke-width="4" fill="#cfe4ff"/><use xlink:href="#X" transform="matrix(1,0,0,1,-2106.927734375,540.089277437522) translate(10.193793402777771 33.76215277777778)"/><use xlink:href="#Y" transform="matrix(1,0,0,1,-2106.927734375,540.089277437522) translate(83.55533854166666 33.76215277777778)"/><use xlink:href="#Z" transform="matrix(1,0,0,1,-2106.927734375,540.089277437522) translate(2.2348090277777857 66.02777777777777)"/><use xlink:href="#aa" transform="matrix(1,0,0,1,-2106.927734375,540.089277437522) translate(124.46788194444444 66.02777777777777)"/><use xlink:href="#ab" transform="matrix(1,0,0,1,-2106.927734375,540.089277437522) translate(24.050130208333343 98.29340277777777)"/><path d="M-1665.07 1541.36a6 6 0 0 1 6-6h165.38a6 6 0 0 1 6 6v121.58a6 6 0 0 1-6 6h-165.37a6 6 0 0 1-6-6z" stroke="#1071e5" stroke-width="4" fill="#cfe4ff"/><use xlink:href="#ac" transform="matrix(1,0,0,1,-1653.0703125,1547.3605823072066) translate(20.863932291666657 46.87934027777778)"/><use xlink:href="#ad" transform="matrix(1,0,0,1,-1653.0703125,1547.3605823072066) translate(8.309678819444443 79.14496527777777)"/><path d="M-557.75-1974.48l1.22.3 1.15.47 1.07.65.94.8.82.96.65 1.08.5 1.16.28 1.2.1 1.2v4864.2l-.1 1.16-.3 1.22-.47 1.16-.64 1.07-.82.95-.95.8-1.08.66-1.15.5-1.22.28-1.17.1h-52.36v-3.96h52.2l.7-.06.62-.14.6-.25.52-.33.48-.4.4-.48.34-.54.24-.58.15-.62.05-.7v-4863.9l-.05-.7-.15-.62-.24-.58-.33-.54-.4-.48-.5-.4-.52-.34-.6-.24-.6-.15-.7-.05h-1461.25l-.7.05-.62.15-.6.24-.52.33-.48.4-.4.5-.34.53-.24.58-.15.62-.06.7v431.55h-3.95v-431.7l.1-1.17.3-1.22.47-1.16.64-1.07.8-.94.97-.8 1.07-.67 1.16-.5 1.22-.28 1.17-.1h1461.56z" stroke="#3a414a" stroke-width=".05" fill="#3a414a"/><path d="M-2024.43-1532.97h-3.95v-2.05h3.95z" fill="#3a414a"/><path stroke="#3a414a" stroke-width=".05" fill="#3a414a"/><path d="M-613.28 2908.1l-14.26-4.65 14.26-4.63z" fill="#3a414a"/><path d="M-611.3 2910.8l-22.63-7.35 22.63-7.35zm-9.85-7.35l5.9 1.92v-3.83zM-2057.34-105.77l.05.7.16.62.24.58.33.54.4.48.5.4.53.34.58.23.6.15.72.05H-806v3.95h-1247.4l-1.17-.1-1.2-.28-1.17-.48-1.07-.66-.96-.8-.8-.96-.67-1.07-.48-1.16-.3-1.2-.1-1.18v-1322.2h3.96z" stroke="#3a414a" stroke-width=".05" fill="#3a414a"/><path d="M-2057.34-1427.76h-3.95v-2.05h3.96z" fill="#3a414a"/><path stroke="#3a414a" stroke-width=".05" fill="#3a414a"/><path d="M-789.74-99.7L-804-95.05v-9.27z" fill="#3a414a"/><path d="M-783.35-99.7l-22.63 7.36v-14.7zm-18.68 1.92l5.9-1.9-5.9-1.93zM-2096.23-1504.2h-84.47l-.7.05-.62.15-.58.24-.54.33-.48.4-.4.5-.34.53-.24.58-.14.6-.06.72v4081.74l.06.7.14.62.24.58.33.54.4.47.5.4.53.34.58.24.62.14.7.06h1366.26v3.95h-1366.4l-1.18-.1-1.22-.3-1.16-.48-1.07-.65-.95-.8-.8-.96-.67-1.06-.46-1.16-.3-1.22-.1-1.17v-4082.06l.1-1.17.3-1.2.47-1.17.67-1.07.8-.95.96-.82 1.07-.65 1.16-.47 1.22-.3 1.17-.08h84.62z" stroke="#3a414a" stroke-width=".05" fill="#3a414a"/><path d="M-2094.23-1504.2h-2.05v-3.95h2.05z" fill="#3a414a"/><path stroke="#3a414a" stroke-width=".05" fill="#3a414a"/><path d="M-798.17 2587.7l-14.27 4.65v-9.27z" fill="#3a414a"/><path d="M-791.78 2587.7l-22.63 7.37v-14.7zm-18.7 1.93l5.9-1.92-5.88-1.9z" stroke="#3a414a" stroke-width=".05" fill="#3a414a"/><path d="M-1956.57-1497.92h222.5" stroke="#3a414a" stroke-width="4" fill="none"/><path d="M-1956.52-1495.94h-2.05v-3.95h2.05z" stroke="#3a414a" stroke-width=".05" fill="#3a414a"/><path d="M-1717.8-1497.92l-14.27 4.64v-9.27z" stroke="#3a414a" stroke-width="4" fill="#3a414a"/><path d="M-2096.23-1454.63h-36.47l-.7.06-.62.15-.58.24-.54.33-.48.4-.4.5-.34.52-.24.6-.14.6-.06.7V922l.06.7.14.6.24.6.33.53.4.48.5.42.53.33.58.24.62.14.7.05h449.42v3.94h-449.57l-1.17-.1-1.22-.28-1.16-.48-1.07-.65-.95-.82-.8-.94-.67-1.07-.46-1.17-.3-1.2-.1-1.18v-2372.83l.1-1.17.3-1.22.47-1.15.67-1.07.8-.95.96-.8 1.07-.66 1.16-.5 1.22-.28 1.17-.1h36.62z" stroke="#3a414a" stroke-width=".05" fill="#3a414a"/><path d="M-2094.23-1454.63h-2.05v-3.95h2.05z" fill="#3a414a"/><path stroke="#3a414a" stroke-width=".05" fill="#3a414a"/><path d="M-1667 928.07l-14.28 4.63v-9.27z" fill="#3a414a"/><path d="M-1660.62 928.07l-22.63 7.35v-14.7zm-18.68 1.92l5.9-1.93-5.9-1.92z" stroke="#3a414a" stroke-width=".05" fill="#3a414a"/><path d="M-2026.4-1427.8v1025.74a6 6 0 0 0 6 6h315.82" stroke="#3a414a" stroke-width="4" fill="none"/><path d="M-2024.43-1427.76h-3.95v-2.05h3.95z" stroke="#3a414a" stroke-width=".05" fill="#3a414a"/><path d="M-1688.32-396.06l-14.26 4.63v-9.27z" stroke="#3a414a" stroke-width="4" fill="#3a414a"/><path d="M-1991.5-581.98l.05.7.14.62.23.58.33.54.4.48.5.4.53.34.57.24.62.15.7.05h1388.48l1.17.1 1.22.3 1.15.47 1.07.64.94.8.82.97.65 1.07.5 1.16.28 1.22.1 1.17v2166.2l-.1 1.18-.3 1.22-.47 1.16-.64 1.06-.82.96-.95.8-1.08.66-1.15.48-1.22.3-1.17.1h-9.96v-3.96h9.8l.7-.06.62-.15.6-.24.52-.33.48-.4.4-.5.34-.52.24-.6.15-.6.05-.7v-2165.9l-.05-.7-.15-.63-.24-.58-.33-.53-.4-.5-.5-.4-.52-.32-.6-.25-.6-.14-.7-.06h-1388.5l-1.16-.1-1.22-.28-1.16-.5-1.08-.65-.95-.8-.8-.96-.67-1.08-.48-1.16-.3-1.2-.08-1.2v-845.97h3.95z" stroke="#3a414a" stroke-width=".05" fill="#3a414a"/><path d="M-1991.5-1427.76h-3.96v-2.05h3.95z" fill="#3a414a"/><path stroke="#3a414a" stroke-width=".05" fill="#3a414a"/><path d="M-610.88 1606.8l-14.27-4.65 14.27-4.63z" fill="#3a414a"/><path d="M-608.9 1609.5l-22.64-7.35 22.63-7.35zm-9.86-7.35l5.9 1.92v-3.84zM-2096.23-1479.4h-52.47l-.7.04-.62.15-.58.23-.54.33-.48.4-.4.5-.34.53-.24.57-.14.6-.06.72v3071.37l.06.7.14.62.24.58.33.53.4.5.5.4.53.33.58.24.62.15.7.06h458.9v3.95h-459.05l-1.17-.1-1.22-.3-1.16-.47-1.07-.65-.95-.8-.8-.96-.67-1.06-.46-1.16-.3-1.22-.1-1.17v-3071.7l.1-1.17.3-1.22.47-1.15.67-1.08.8-.95.96-.82 1.07-.65 1.16-.48 1.22-.3 1.17-.1 52.62.02z" stroke="#3a414a" stroke-width=".05" fill="#3a414a"/><path d="M-2094.23-1479.4h-2.05v-3.96h2.05z" fill="#3a414a"/><path stroke="#3a414a" stroke-width=".05" fill="#3a414a"/><path d="M-1673.54 1602.15l-14.27 4.64v-9.28z" fill="#3a414a"/><path d="M-1667.15 1602.15l-22.63 7.36v-14.7zm-18.68 1.92l5.9-1.92-5.9-1.92z" stroke="#3a414a" stroke-width=".05" fill="#3a414a"/><path d="M-2026.4 2335.78v245.93c-3.3 0-6 2.7-6 6 0 3.33 2.7 6 6 6v303.75a6 6 0 0 0 6 6h1200.8" stroke="#3a414a" stroke-width="4" fill="none"/><path d="M-2024.43 2335.83h-3.95v-2.05h3.95z" stroke="#3a414a" stroke-width=".05" fill="#3a414a"/><path d="M-803.32 2903.45l-14.27 4.64v-9.28z" stroke="#3a414a" stroke-width="4" fill="#3a414a"/><path d="M-2134.72-90.12l2.9 2.9.56 2.08H-806v3.95h-1328.3l-1.06-3.97-1.4-1.4-2-.55-2.02.54-1.4 1.4-1.08 4h-7.03l-1.06-4-1.4-1.4-2-.54-2.02.54-1.4 1.4-1.08 4h-6.44l-.55.03-.46.1-.45.2-.4.24-.36.3-.32.36-.24.4-.18.44-.12.46-.04.55V2260l.06.7.14.6.24.6.33.53.4.48.5.42.53.33.58.24.62.14.7.06h47.04v3.95h-47.2l-1.16-.1-1.22-.3-1.16-.47-1.07-.65-.95-.8-.8-.97-.67-1.06-.46-1.16-.3-1.22-.1-1.17V-78.25l.1-1 .25-1.07.4-1.02.58-.93.7-.83.84-.72.94-.57 1-.4 1.07-.26 1.02-.08h3.56l.58-2.08 2.9-2.9 4.05-1.1 4.05 1.1 2.9 2.9.56 2.08h.97l.58-2.08 2.9-2.9 4.05-1.1z" stroke="#3a414a" stroke-width=".05" fill="#3a414a"/><path d="M-2115.66 2268.05h-2.05v-3.95h2.04z" fill="#3a414a"/><path stroke="#3a414a" stroke-width=".05" fill="#3a414a"/><path d="M-789.74-83.17L-804-78.53v-9.27z" fill="#3a414a"/><path d="M-783.35-83.17l-22.63 7.36v-14.72zm-18.68 1.92l5.9-1.92-5.9-1.9z" stroke="#3a414a" stroke-width=".05" fill="#3a414a"/><path d="M-1935.15 2287.98h1213.72a6 6 0 0 1 6 6v213.06" stroke="#3a414a" stroke-width="4" fill="none"/><path d="M-1935.1 2289.95h-2.05V2286h2.05z" stroke="#3a414a" stroke-width=".05" fill="#3a414a"/><path d="M-715.43 2523.3l-4.64-14.26h9.27z" stroke="#3a414a" stroke-width="4" fill="#3a414a"/><path d="M-577.75-1483.27l1.22.3 1.15.47 1.07.65.94.82.82.95.65 1.07.5 1.14.28 1.22.1 1.17v3713.72l-.1 1.17-.3 1.22-.47 1.15-.64 1.06-.82.95-.95.83-1.08.65-1.15.48-1.22.3-1.17.08h-1356.23v-3.95h1356.07l.7-.06.62-.15.6-.25.52-.33.48-.4.4-.5.34-.53.24-.6.15-.6.05-.7v-3713.4l-.05-.72-.15-.6-.24-.6-.33-.53-.4-.48-.5-.4-.52-.34-.6-.24-.6-.16-.7-.06h-9.2v-3.94h9.35z" stroke="#3a414a" stroke-width=".05" fill="#3a414a"/><path d="M-1935.1 2246.14h-2.05v-3.95h2.05z" fill="#3a414a"/><path stroke="#3a414a" stroke-width=".05" fill="#3a414a"/><path d="M-590.26-1476.76l-14.27-4.63 14.27-4.63z" fill="#3a414a"/><path d="M-588.3-1474.04l-22.62-7.35 22.63-7.34zm-9.84-7.35l5.9 1.93v-3.84z" stroke="#3a414a" stroke-width=".05" fill="#3a414a"/><path d="M-2026.4 2196.36v-233.8a6 6 0 0 1 6-6h1192.98" stroke="#3a414a" stroke-width="4" fill="none"/><path d="M-2024.43 2198.36h-3.95v-2.05h3.95z" stroke="#3a414a" stroke-width=".05" fill="#3a414a"/><path d="M-811.16 1956.56l-14.26 4.63v-9.28z" stroke="#3a414a" stroke-width="4" fill="#3a414a"/><path d="M-1926.03 255.5h239.48" stroke="#3a414a" stroke-width="4" fill="none"/><path d="M-1925.98 257.5h-2.05v-3.96h2.05z" stroke="#3a414a" stroke-width=".05" fill="#3a414a"/><path d="M-1670.28 255.5l-14.27 4.65v-9.27z" stroke="#3a414a" stroke-width="4" fill="#3a414a"/><path d="M-1828.05-188.96l.05.7.15.62.24.58.32.54.4.48.5.4.53.34.58.24.6.15.72.04H-743.3l1.17.1 1.22.28 1.15.48 1.07.66.95.8.8.96.66 1.07.48 1.15.3 1.22.1 1.17v36h-3.95v-35.85l-.06-.7-.15-.63-.25-.58-.33-.55-.4-.48-.48-.4-.55-.34-.6-.24-.6-.15-.7-.06H-1824.1l-1.18-.1-1.2-.3-1.17-.47-1.07-.66-.95-.8-.82-.96-.64-1.06-.48-1.16-.3-1.22-.08-1.17v-105h3.95zm114.72-1273.93h-110.62l-.7.07-.62.14-.58.25-.54.33-.47.4-.4.5-.34.53-.25.6-.15.6-.05.7v878.4l-3.98 1.08-1.4 1.4-.55 2.02.54 2 1.4 1.4 4 1.1v170.85l-4 1.08-1.4 1.4-.54 2 .54 2 1.4 1.42 4 1.08v76.25h-3.96v-73.23l-2.08-.56-2.9-2.9-1.1-4.06 1.1-4.05 2.9-2.9 2.08-.57V-568.4l-2.08-.55-2.9-2.9-1.1-4.05 1.1-4.06 2.9-2.9 2.08-.55v-875.54l.1-1.17.28-1.23.48-1.16.65-1.06.83-.95.95-.82 1.07-.66 1.16-.47 1.22-.3 1.17-.1h110.77z" stroke="#3a414a" stroke-width=".05" fill="#3a414a"/><path d="M-1708.7-1462.9h-4.68v-3.5z" fill="#3a414a"/><path stroke="#3a414a" stroke-width=".05" fill="#3a414a"/><path d="M-737.38-124.7l-4.63-14.26h9.26z" fill="#3a414a"/><path d="M-737.38-118.3l-7.35-22.63h14.7zm-1.9-18.68l1.9 5.9 1.92-5.9z" stroke="#3a414a" stroke-width=".05" fill="#3a414a"/><use xlink:href="#ae" transform="matrix(1,0,0,1,-1862.733072916667,-315.3208820963917) translate(0 17.22222222222222)"/><path d="M-1561.17-1862.64h-9.13l-.7.06-.62.15-.6.24-.52.34-.48.4-.4.5-.34.52-.24.6-.15.6-.06.7v259.9h-3.95v-260.05l.1-1.16.28-1.22.48-1.15.66-1.07.82-.96.95-.8 1.07-.66 1.15-.48 1.22-.3 1.17-.1h9.3zm325.86 0h-260.46v-3.95h260.45z" stroke="#3a414a" stroke-width=".05" fill="#3a414a"/><path d="M-1574.4-1596.4l-.7-.15-1.28-.08-1.28.08-.7.14v-2.28h3.95z" fill="#3a414a"/><path stroke="#3a414a" stroke-width=".05" fill="#3a414a"/><path d="M-1219.05-1864.6l-14.26 4.62v-9.27z" fill="#3a414a"/><path d="M-1212.65-1864.6l-22.64 7.34v-14.7zm-18.7 1.9l5.9-1.9-5.9-1.93z" stroke="#3a414a" stroke-width=".05" fill="#3a414a"/><use xlink:href="#ae" transform="matrix(1,0,0,1,-1561.170532960042,-1875.367020385909) translate(0 17.22222222222222)"/><path d="M-1602.88-759.12l.05.7.15.62.24.58.33.54.4.48.48.4.54.34.58.24.62.14.7.06h351.3v3.95h-351.45l-1.17-.1-1.22-.28-1.16-.48-1.07-.66-.95-.8-.8-.95-.67-1.07-.48-1.16-.3-1.2-.08-1.2V-868.2h3.95zm0-130.6h-3.95v-493.3h3.95z" stroke="#3a414a" stroke-width=".05" fill="#3a414a"/><path d="M-1602.88-1383.53v.57h-3.95v-3.53z" fill="#3a414a"/><path stroke="#3a414a" stroke-width=".05" fill="#3a414a"/><path d="M-1231.2-753.04l-14.27 4.63v-9.28z" fill="#3a414a"/><path d="M-1224.8-753.04l-22.64 7.35v-14.7zm-18.7 1.9l5.9-1.9-5.9-1.92z" stroke="#3a414a" stroke-width=".05" fill="#3a414a"/><use xlink:href="#ae" transform="matrix(1,0,0,1,-1637.5605468750002,-889.719891764831) translate(0 17.22222222222222)"/><path d="M-1235.3-1100.14v3.95h-255.65v-3.94zm-310.63-8.78h-3.95v-274.1h3.95z" stroke="#3a414a" stroke-width=".05" fill="#3a414a"/><path d="M-1545.93-1382.96h-3.95v-.57l3.95-2.96z" fill="#3a414a"/><path stroke="#3a414a" stroke-width=".05" fill="#3a414a"/><path d="M-1219.05-1098.17l-14.26 4.64v-9.27z" fill="#3a414a"/><path d="M-1212.65-1098.17l-22.64 7.35v-14.7zm-18.7 1.92l5.9-1.92-5.9-1.92z" stroke="#3a414a" stroke-width=".05" fill="#3a414a"/><use xlink:href="#ae" transform="matrix(1,0,0,1,-1556.3630265399302,-1108.9243535799249) translate(0 17.22222222222222)"/><path d="M-1350.85-1479.4h-70.87v-3.96h70.87zm115.54 0h-50.14v-3.96h50.13z" stroke="#3a414a" stroke-width=".05" fill="#3a414a"/><path d="M-1421.67-1479.4h-2.38l.22-.8.1-1.2-.1-1.2-.23-.77h2.4z" fill="#3a414a"/><path stroke="#3a414a" stroke-width=".05" fill="#3a414a"/><path d="M-1219.05-1481.4l-14.26 4.64v-9.27z" fill="#3a414a"/><path d="M-1212.65-1481.4l-22.64 7.36v-14.7zm-18.7 1.93l5.9-1.92-5.9-1.9z" stroke="#3a414a" stroke-width=".05" fill="#3a414a"/><use xlink:href="#ae" transform="matrix(1,0,0,1,-1350.8514999090053,-1492.145686982917) translate(0 17.22222222222222)"/><path d="M-713.46-1583.27h-3.95v-270.6h3.94zm-312.56-279.37v-3.95h273.63v3.96z" stroke="#3a414a" stroke-width=".05" fill="#3a414a"/><path d="M-1025.97-1862.64h-2.05v-3.95h2.05z" fill="#3a414a"/><path stroke="#3a414a" stroke-width=".05" fill="#3a414a"/><path d="M-715.43-1567l-4.64-14.27h9.27z" fill="#3a414a"/><path d="M-715.43-1560.6l-7.36-22.64h14.72zm-1.92-18.7l1.92 5.9 1.9-5.9z" stroke="#3a414a" stroke-width=".05" fill="#3a414a"/><use xlink:href="#ae" transform="matrix(1,0,0,1,-752.3918638570602,-1875.367020385909) translate(0 17.22222222222222)"/><path d="M-691.5-758.97l-.1 1.18-.3 1.22-.48 1.16-.65 1.07-.82.95-.95.8-1.07.67-1.15.48-1.22.3-1.17.08h-314.47v-3.95h314.3l.7-.06.62-.14.6-.24.52-.33.48-.4.4-.48.34-.54.23-.58.15-.62.06-.7V-905.7h3.95zm0-168.24h-3.96v-452.3h3.95z" stroke="#3a414a" stroke-width=".05" fill="#3a414a"/><path d="M-1013.8-751.07h-2.07v-3.95h2.06z" fill="#3a414a"/><path stroke="#3a414a" stroke-width=".05" fill="#3a414a"/><path d="M-688.85-1381.5h-9.27l4.63-14.28z" fill="#3a414a"/><path d="M-686.13-1379.54h-14.7l7.34-22.63zm-9.28-3.95h3.83l-1.92-5.9z" stroke="#3a414a" stroke-width=".05" fill="#3a414a"/><use xlink:href="#ae" transform="matrix(1,0,0,1,-726.1928790983607,-927.2137844155635) translate(0 17.22222222222222)"/><path d="M-770.08-1096.2h-255.94v-3.94h255.94zm34.68-19.44h-3.95v-263.87h3.95z" stroke="#3a414a" stroke-width=".05" fill="#3a414a"/><path d="M-1025.97-1096.2h-2.05v-3.94h2.05z" fill="#3a414a"/><path stroke="#3a414a" stroke-width=".05" fill="#3a414a"/><path d="M-732.74-1381.5H-742l4.62-14.28z" fill="#3a414a"/><path d="M-730.02-1379.54h-14.7l7.34-22.63zm-9.27-3.95h3.84l-1.92-5.9z" stroke="#3a414a" stroke-width=".05" fill="#3a414a"/><use xlink:href="#ae" transform="matrix(1,0,0,1,-770.0805584016393,-1115.6411284574633) translate(0 17.22222222222222)"/><path d="M-956.65-1479.4h-69.37v-3.96h69.37zm114.05 0h-48.64v-3.96h48.64z" stroke="#3a414a" stroke-width=".05" fill="#3a414a"/><path d="M-1025.97-1479.4h-2.05v-3.96h2.05z" fill="#3a414a"/><path stroke="#3a414a" stroke-width=".05" fill="#3a414a"/><path d="M-826.34-1481.4l-14.26 4.64v-9.27z" fill="#3a414a"/><path d="M-819.95-1481.4l-22.63 7.36v-14.7zm-18.68 1.93l5.9-1.92-5.9-1.9z" stroke="#3a414a" stroke-width=".05" fill="#3a414a"/><use xlink:href="#ae" transform="matrix(1,0,0,1,-956.6485460763889,-1492.145686982917) translate(0 17.22222222222222)"/><path d="M-1118.32 940.96l-.1 1.17-.3 1.22-.47 1.16-.64 1.07-.82.96-.95.8-1.08.66-1.15.47-1.22.3-1.17.1h-343.24v-3.96h343.08l.7-.05.62-.14.6-.24.52-.33.48-.4.4-.5.34-.52.24-.58.15-.6.06-.72V474.47h3.95zM-806-31.62h-308.22l-.7.06-.62.15-.58.23-.54.33-.48.4-.4.5-.34.53-.24.57-.15.6-.05.72v480.45h-3.95V-27.67l.1-1.17.28-1.22.5-1.15.64-1.08.82-.95.95-.82 1.08-.65 1.16-.48 1.2-.3 1.18-.1 308.38.02z" stroke="#3a414a" stroke-width=".05" fill="#3a414a"/><path d="M-1469.4 948.86h-2.4l.23-.78.1-1.2-.1-1.2-.22-.77h2.4z" fill="#3a414a"/><path stroke="#3a414a" stroke-width=".05" fill="#3a414a"/><path d="M-789.74-33.6L-804-28.94v-9.28z" fill="#3a414a"/><path d="M-783.35-33.6l-22.63 7.36v-14.7zm-18.68 1.93l5.9-1.92-5.9-1.9z" stroke="#3a414a" stroke-width=".05" fill="#3a414a"/><use xlink:href="#ae" transform="matrix(1,0,0,1,-1153.0021701388891,452.9551786631908) translate(0 17.22222222222222)"/><path d="M-1602.88 1274.76l.05.7.15.62.24.58.33.54.4.48.48.4.54.34.58.24.62.15.7.06h232.04v3.95h-232.2l-1.16-.08-1.22-.3-1.16-.47-1.07-.65-.95-.82-.8-.95-.67-1.07-.48-1.15-.3-1.2-.08-1.18v-265.46h3.95zm790.3 4.1v3.95h-488.75v-3.94z" stroke="#3a414a" stroke-width=".05" fill="#3a414a"/><path d="M-1602.88 1008.94v.57h-3.95V1006z" fill="#3a414a"/><path stroke="#3a414a" stroke-width=".05" fill="#3a414a"/><path d="M-796.3 1280.84l-14.27 4.63v-9.27z" fill="#3a414a"/><path d="M-789.9 1280.84l-22.64 7.35v-14.72zm-18.7 1.92l5.9-1.92-5.9-1.92z" stroke="#3a414a" stroke-width=".05" fill="#3a414a"/><use xlink:href="#ae" transform="matrix(1,0,0,1,-1366.7373217855384,1270.083420741706) translate(0 17.22222222222222)"/><path d="M-1545.93 1120.24l.06.7.14.62.25.58.33.54.4.48.48.4.54.34.6.24.6.15.7.04h378.52v3.95H-1542l-1.17-.1-1.22-.3-1.16-.47-1.07-.66-.95-.8-.8-.96-.67-1.06-.47-1.16-.3-1.2-.08-1.2v-110.92h3.95zm832.47.15l-.1 1.16-.28 1.22-.48 1.16-.66 1.07-.8.96-.96.8-1.07.67-1.17.48-1.2.3-1.2.1h-376.53v-3.96h376.4l.7-.05.6-.16.6-.24.53-.33.48-.4.42-.5.33-.53.24-.58.14-.62.05-.7v-92.18h3.94z" stroke="#3a414a" stroke-width=".05" fill="#3a414a"/><path d="M-1545.93 1009.5h-3.95v-.56l3.95-2.96z" fill="#3a414a"/><path stroke="#3a414a" stroke-width=".05" fill="#3a414a"/><path d="M-710.8 1026.06h-9.27l4.64-14.26z" fill="#3a414a"/><path d="M-708.08 1028.04h-14.7l7.35-22.63zm-9.27-3.95h3.83l-1.9-5.9z" stroke="#3a414a" stroke-width=".05" fill="#3a414a"/><g><use xlink:href="#ae" transform="matrix(1,0,0,1,-1163.305113105602,1115.5614675095387) translate(0 17.22222222222222)"/></g><path d="M-1828.05 1906.67l.05.7.15.62.24.57.32.54.4.5.5.4.53.33.58.24.6.15.72.06h996.53v3.94h-996.7l-1.16-.1-1.2-.28-1.17-.48-1.07-.65-.95-.8-.82-.96-.64-1.07-.48-1.15-.3-1.22-.08-1.17v-28.92h3.95zm165.5-939h-161.4l-.7.06-.62.14-.58.25-.54.33-.47.4-.4.5-.34.52-.25.6-.15.6-.05.7v625.9l-3.98 1.07-1.4 1.4-.55 2 .54 2.02 1.4 1.4 4 1.08v249.75h-3.96v-246.74l-2.08-.56-2.9-2.9-1.1-4.05 1.1-4.05 2.9-2.9 2.08-.56V971.62l.1-1.17.28-1.22.48-1.16.65-1.06.83-.95.95-.8 1.07-.66 1.16-.5 1.22-.3 1.17-.08h161.56z" stroke="#3a414a" stroke-width=".05" fill="#3a414a"/><path d="M-1657.9 967.67h-4.7v-3.5z" fill="#3a414a"/><path stroke="#3a414a" stroke-width=".05" fill="#3a414a"/><path d="M-811.16 1912.75l-14.26 4.63v-9.27z" fill="#3a414a"/><path d="M-804.77 1912.75l-22.63 7.35v-14.7zm-18.68 1.92l5.9-1.92-5.9-1.92z" stroke="#3a414a" stroke-width=".05" fill="#3a414a"/><g><use xlink:href="#ae" transform="matrix(1,0,0,1,-1862.733072916667,1856.3947708912845) translate(0 17.22222222222222)"/></g><path d="M-699.4-251.53l1.16.1 1.22.3 1.15.47 1.07.65.95.8.82.96.65 1.06.48 1.16.3 1.22.1 1.17v102.67h-3.96v-102.5l-.06-.72-.15-.6-.24-.6-.34-.53-.4-.5-.5-.4-.52-.33-.6-.24-.6-.15-.7-.06h-370.34v-3.95zm-874.95-3.4l.15.62.24.57.33.54.4.5.5.4.53.33.58.24.6.15.72.05h435v3.95h-435.16l-1.17-.1-1.22-.28-1.15-.48-1.07-.66-.95-.8-.82-.96-.65-1.07-.47-1.16-.3-1.2-.1-1.17v-58.74h3.96v58.57z" stroke="#3a414a" stroke-width=".05" fill="#3a414a"/><path d="M-1577.66-316.3l1.28.1 1.28-.1.7-.13v2.27h-3.95v-2.27z" fill="#3a414a"/><path stroke="#3a414a" stroke-width=".05" fill="#3a414a"/><path d="M-693.5-124.7l-4.62-14.26h9.27z" fill="#3a414a"/><path d="M-693.5-118.3l-7.34-22.63h14.7zm-1.9-18.68l1.9 5.9 1.93-5.9z" stroke="#3a414a" stroke-width=".05" fill="#3a414a"/><g><use xlink:href="#ae" transform="matrix(1,0,0,1,-1135.3030340967348,-260.30672200520775) translate(0 17.22222222222222)"/></g><path d="M-1174.7-394.1h-294.2v-3.94h294.2zm338.9 0h-273.5v-3.94h273.5z" stroke="#3a414a" stroke-width=".05" fill="#3a414a"/><path d="M-1468.86-394.1h-2.4l.23-.76.12-1.2-.13-1.2-.22-.78h2.4z" fill="#3a414a"/><path stroke="#3a414a" stroke-width=".05" fill="#3a414a"/><path d="M-819.55-396.06l-14.26 4.63v-9.27z" fill="#3a414a"/><path d="M-813.15-396.06l-22.64 7.35v-14.7zm-18.7 1.92l5.9-1.92-5.9-1.92z" stroke="#3a414a" stroke-width=".05" fill="#3a414a"/><g><use xlink:href="#ae" transform="matrix(1,0,0,1,-1174.6978000046133,-406.8159179687494) translate(0 17.22222222222222)"/></g><path d="M-1340.43-64.67h-229.87l-.7.06-.62.14-.6.24-.52.33-.48.42-.4.48-.34.53-.24.6-.15.6-.06.7V187.2h-3.95v-247.9l.1-1.17.28-1.2.48-1.16.66-1.07.82-.95.95-.82 1.07-.65 1.15-.48 1.22-.3 1.17-.1h230.03zm534.43 0h-469.03v-3.95H-806z" stroke="#3a414a" stroke-width=".05" fill="#3a414a"/><path d="M-1574.4 189.18h-3.95v-2.06h3.94z" fill="#3a414a"/><path stroke="#3a414a" stroke-width=".05" fill="#3a414a"/><path d="M-789.74-66.64L-804-62v-9.28z" fill="#3a414a"/><path d="M-783.35-66.64l-22.63 7.35V-74zm-18.68 1.92l5.9-1.92-5.9-1.92z" stroke="#3a414a" stroke-width=".05" fill="#3a414a"/><g><use xlink:href="#ae" transform="matrix(1,0,0,1,-1340.4350067339751,-77.3965657552077) translate(0 17.22222222222222)"/></g><path d="M-1175.17 1604.13h-308.52v-3.95h308.53zm353.2 0h-287.8v-3.95h287.8z" stroke="#3a414a" stroke-width=".05" fill="#3a414a"/><path d="M-1483.64 1604.13h-2.05v-3.95h2.06z" fill="#3a414a"/><path stroke="#3a414a" stroke-width=".05" fill="#3a414a"/><path d="M-805.72 1602.15l-14.26 4.64v-9.28z" fill="#3a414a"/><path d="M-799.33 1602.15l-22.63 7.36v-14.7zm-18.68 1.92l5.9-1.92-5.9-1.92z" stroke="#3a414a" stroke-width=".05" fill="#3a414a"/><g><use xlink:href="#ae" transform="matrix(1,0,0,1,-1175.1706816041667,1591.3968504184893) translate(0 17.22222222222222)"/></g><path d="M-1320.76 591.85l-.1 1.17-.28 1.22-.48 1.15-.65 1.06-.82.95-.94.83-1.07.65-1.17.48-1.2.3-1.18.08h-601.23v-3.95h601.07l.7-.06.6-.15.6-.25.53-.33.48-.4.42-.5.33-.53.24-.6.14-.6.05-.7V319.4h3.94zm514.76-640h-510.65l-.7.06-.62.16-.6.24-.52.33-.47.4-.4.5-.34.53-.25.58-.15.62-.06.7V297.9h-3.95V-44.2l.1-1.16.28-1.22.48-1.16.65-1.07.83-.96.95-.8 1.07-.67 1.15-.48 1.22-.3 1.17-.1H-806z" stroke="#3a414a" stroke-width=".05" fill="#3a414a"/><path d="M-1929.82 599.74h-2.06v-3.95h2.06z" fill="#3a414a"/><path stroke="#3a414a" stroke-width=".05" fill="#3a414a"/><path d="M-789.74-50.12L-804-45.48v-9.27z" fill="#3a414a"/><path d="M-783.35-50.12l-22.63 7.36v-14.7zm-18.68 1.92l5.9-1.92-5.9-1.9z" stroke="#3a414a" stroke-width=".05" fill="#3a414a"/><g><use xlink:href="#ae" transform="matrix(1,0,0,1,-1355.4348958333335,297.9106534546758) translate(0 17.22222222222222)"/></g><defs><path fill="#fff" d="M98-1322v-168h1126v168H757V0H567v-1322H98" id="af"/><path fill="#fff" d="M628 24c-324 0-524-230-524-574 0-343 198-582 503-582 237 0 487 146 487 559v75H286c9 234 145 362 343 362 132 0 231-58 273-172l174 48C1024-91 857 24 628 24zM287-650h624c-17-190-120-322-304-322-192 0-309 151-320 322" id="ag"/><path fill="#fff" d="M158 0v-1118h175l1 205c55-151 181-225 313-225 147 0 245 90 285 228 53-141 190-228 352-228 194 0 352 125 352 384V0h-181v-749c0-161-105-225-225-225-151 0-243 103-243 244V0H807v-767c0-124-93-207-219-207-131 0-250 92-250 270V0H158" id="ah"/><path fill="#fff" d="M158 418v-1536h174v179h20c37-59 106-193 324-193 279 0 474 222 474 576 0 356-194 580-473 580-213 0-288-135-325-197h-14v591H158zm492-555c209 0 317-186 317-421 0-232-105-413-317-413-206 0-314 166-314 413 0 249 111 421 314 421" id="ai"/><path fill="#fff" d="M613 24c-304 0-509-231-509-576 0-350 205-580 509-580 305 0 511 230 511 580 0 345-206 576-511 576zm0-161c226 0 329-195 329-415 0-222-103-419-329-419-223 0-326 196-326 419 0 220 103 415 326 415" id="aj"/><path fill="#fff" d="M158 0v-1118h174v172h12c41-113 157-188 290-188 26 0 70 2 91 3v181c-11-2-60-10-108-10-161 0-279 109-279 260V0H158" id="ak"/><path fill="#fff" d="M158 0v-1118h180V0H158zm91-1301c-68 0-125-53-125-119s57-119 125-119c69 0 126 53 126 119s-57 119-126 119" id="al"/><path fill="#fff" d="M538 24C308 24 148-78 108-271l171-41c32 123 123 178 257 178 156 0 256-77 256-169 0-77-54-128-164-154l-186-44c-203-48-300-148-300-305 0-192 176-326 414-326 230 0 351 112 402 269l-163 42c-31-80-94-158-238-158-133 0-233 69-233 162 0 83 57 129 188 160l169 40c203 48 298 149 298 302 0 196-179 339-441 339" id="am"/><path fill="#fff" d="M295 13c-75 0-135-60-135-135s60-135 135-135 135 60 135 135S370 13 295 13zm0-809c-75 0-135-60-135-135s60-135 135-135 135 60 135 135-60 135-135 135" id="an"/><g id="a"><use transform="matrix(0.008173828125000001,0,0,0.008173828125000001,0,0)" xlink:href="#af"/><use transform="matrix(0.008173828125000001,0,0,0.008173828125000001,9.49798828125,0)" xlink:href="#ag"/><use transform="matrix(0.008173828125000001,0,0,0.008173828125000001,19.2575390625,0)" xlink:href="#ah"/><use transform="matrix(0.008173828125000001,0,0,0.008173828125000001,33.92138671875,0)" xlink:href="#ai"/><use transform="matrix(0.008173828125000001,0,0,0.008173828125000001,44.1713671875,0)" xlink:href="#aj"/><use transform="matrix(0.008173828125000001,0,0,0.008173828125000001,54.208828125000004,0)" xlink:href="#ak"/><use transform="matrix(0.008173828125000001,0,0,0.008173828125000001,60.772412109375,0)" xlink:href="#al"/><use transform="matrix(0.008173828125000001,0,0,0.008173828125000001,64.826630859375,0)" xlink:href="#am"/><use transform="matrix(0.008173828125000001,0,0,0.008173828125000001,73.6625390625,0)" xlink:href="#an"/></g><path fill="#fff" d="M783 20c-382 0-661-292-661-764 0-473 279-766 661-766 302 0 548 182 601 489h-190c-42-204-217-313-411-313-268 0-476 208-476 590 0 381 209 588 476 588 195 0 369-110 411-313h190c-52 303-296 489-601 489" id="ao"/><path fill="#fff" d="M471 26C259 26 90-98 90-318c0-256 228-303 435-329 202-27 287-16 287-108 0-139-79-219-234-219-161 0-248 86-283 164l-173-57c86-203 278-265 451-265 150 0 419 46 419 395V0H815v-152h-12C765-73 660 26 471 26zm31-159c199 0 310-134 310-271v-155c-30 35-226 55-295 64-131 17-246 59-246 186 0 116 97 176 231 176" id="ap"/><g id="b"><use transform="matrix(0.008173828125000001,0,0,0.008173828125000001,0,0)" xlink:href="#ao"/><use transform="matrix(0.008173828125000001,0,0,0.008173828125000001,12.228046875000002,0)" xlink:href="#ap"/><use transform="matrix(0.008173828125000001,0,0,0.008173828125000001,21.627949218750004,0)" xlink:href="#am"/><use transform="matrix(0.008173828125000001,0,0,0.008173828125000001,30.463857421875005,0)" xlink:href="#aj"/><use transform="matrix(0.008173828125000001,0,0,0.008173828125000001,40.501318359375006,0)" xlink:href="#am"/></g><path fill="#fff" d="M577 24c-279 0-473-224-473-580 0-354 195-576 474-576 218 0 287 134 324 193h14v-551h180V0H922v-173h-20C865-111 790 24 577 24zm27-161c203 0 314-172 314-421 0-247-108-413-314-413-212 0-317 181-317 413 0 235 108 421 317 421" id="aq"/><g id="c"><use transform="matrix(0.008173828125000001,0,0,0.008173828125000001,0,0)" xlink:href="#aq"/><use transform="matrix(0.008173828125000001,0,0,0.008173828125000001,10.249980468750001,0)" xlink:href="#ag"/></g><path fill="#fff" d="M763 24c-353 0-583-224-583-531v-983h190v968c0 214 149 370 393 370 243 0 391-156 391-370v-968h190v983c0 307-230 531-581 531" id="ar"/><g id="d"><use transform="matrix(0.008173828125000001,0,0,0.008173828125000001,0,0)" xlink:href="#ar"/><use transform="matrix(0.008173828125000001,0,0,0.008173828125000001,12.456914062500001,0)" xlink:href="#am"/><use transform="matrix(0.008173828125000001,0,0,0.008173828125000001,21.292822265625002,0)" xlink:href="#aj"/></g><path d="M98-1322v-168h1126v168H757V0H567v-1322H98" id="as"/><path d="M628 24c-324 0-524-230-524-574 0-343 198-582 503-582 237 0 487 146 487 559v75H286c9 234 145 362 343 362 132 0 231-58 273-172l174 48C1024-91 857 24 628 24zM287-650h624c-17-190-120-322-304-322-192 0-309 151-320 322" id="at"/><path d="M158 0v-1118h175l1 205c55-151 181-225 313-225 147 0 245 90 285 228 53-141 190-228 352-228 194 0 352 125 352 384V0h-181v-749c0-161-105-225-225-225-151 0-243 103-243 244V0H807v-767c0-124-93-207-219-207-131 0-250 92-250 270V0H158" id="au"/><path d="M158 418v-1536h174v179h20c37-59 106-193 324-193 279 0 474 222 474 576 0 356-194 580-473 580-213 0-288-135-325-197h-14v591H158zm492-555c209 0 317-186 317-421 0-232-105-413-317-413-206 0-314 166-314 413 0 249 111 421 314 421" id="av"/><path d="M613 24c-304 0-509-231-509-576 0-350 205-580 509-580 305 0 511 230 511 580 0 345-206 576-511 576zm0-161c226 0 329-195 329-415 0-222-103-419-329-419-223 0-326 196-326 419 0 220 103 415 326 415" id="aw"/><path d="M158 0v-1118h174v172h12c41-113 157-188 290-188 26 0 70 2 91 3v181c-11-2-60-10-108-10-161 0-279 109-279 260V0H158" id="ax"/><path d="M158 0v-1118h180V0H158zm91-1301c-68 0-125-53-125-119s57-119 125-119c69 0 126 53 126 119s-57 119-126 119" id="ay"/><path d="M538 24C308 24 148-78 108-271l171-41c32 123 123 178 257 178 156 0 256-77 256-169 0-77-54-128-164-154l-186-44c-203-48-300-148-300-305 0-192 176-326 414-326 230 0 351 112 402 269l-163 42c-31-80-94-158-238-158-133 0-233 69-233 162 0 83 57 129 188 160l169 40c203 48 298 149 298 302 0 196-179 339-441 339" id="az"/><g id="e"><use transform="matrix(0.008173828125000001,0,0,0.008173828125000001,0,0)" xlink:href="#as"/><use transform="matrix(0.008173828125000001,0,0,0.008173828125000001,9.49798828125,0)" xlink:href="#at"/><use transform="matrix(0.008173828125000001,0,0,0.008173828125000001,19.2575390625,0)" xlink:href="#au"/><use transform="matrix(0.008173828125000001,0,0,0.008173828125000001,33.92138671875,0)" xlink:href="#av"/><use transform="matrix(0.008173828125000001,0,0,0.008173828125000001,44.1713671875,0)" xlink:href="#aw"/><use transform="matrix(0.008173828125000001,0,0,0.008173828125000001,54.208828125000004,0)" xlink:href="#ax"/><use transform="matrix(0.008173828125000001,0,0,0.008173828125000001,60.772412109375,0)" xlink:href="#ay"/><use transform="matrix(0.008173828125000001,0,0,0.008173828125000001,64.826630859375,0)" xlink:href="#az"/></g><path d="M52 0l541-1490h220L1361 0h-200l-149-416H398L254 0H52zm404-582h497c-103-290-145-390-251-756-108 377-145 460-246 756" id="aA"/><path d="M613 24c-304 0-509-231-509-576 0-350 205-580 509-580 216 0 392 114 453 309l-173 49c-33-115-133-197-280-197-223 0-326 196-326 419 0 220 103 415 326 415 150 0 252-85 285-206l172 49C1010-95 832 24 613 24" id="aB"/><path d="M598-1118v154H368v674c0 100 37 144 132 144 23 0 62-6 92-12L629-6c-37 13-88 20-134 20-193 0-307-107-307-290v-688H20v-154h168v-266h180v266h230" id="aC"/><path d="M295 13c-75 0-135-60-135-135s60-135 135-135 135 60 135 135S370 13 295 13zm0-809c-75 0-135-60-135-135s60-135 135-135 135 60 135 135-60 135-135 135" id="aD"/><g id="f"><use transform="matrix(0.010850694444444444,0,0,0.010850694444444444,0,0)" xlink:href="#aA"/><use transform="matrix(0.010850694444444444,0,0,0.010850694444444444,15.33203125,0)" xlink:href="#aB"/><use transform="matrix(0.010850694444444444,0,0,0.010850694444444444,28.02734375,0)" xlink:href="#aC"/><use transform="matrix(0.010850694444444444,0,0,0.010850694444444444,35.080295138888886,0)" xlink:href="#aw"/><use transform="matrix(0.010850694444444444,0,0,0.010850694444444444,48.404947916666664,0)" xlink:href="#ax"/><use transform="matrix(0.010850694444444444,0,0,0.010850694444444444,56.77083333333333,0)" xlink:href="#aD"/></g><path d="M763 24c-353 0-583-224-583-531v-983h190v968c0 214 149 370 393 370 243 0 391-156 391-370v-968h190v983c0 307-230 531-581 531" id="aE"/><path d="M537 14c-226 0-379-139-379-422v-710h180v695c0 172 97 275 253 275 160 0 281-109 281-300v-670h181V0H879v-209C806-46 684 14 537 14" id="aF"/><path d="M471 26C259 26 90-98 90-318c0-256 228-303 435-329 202-27 287-16 287-108 0-139-79-219-234-219-161 0-248 86-283 164l-173-57c86-203 278-265 451-265 150 0 419 46 419 395V0H815v-152h-12C765-73 660 26 471 26zm31-159c199 0 310-134 310-271v-155c-30 35-226 55-295 64-131 17-246 59-246 186 0 116 97 176 231 176" id="aG"/><g id="g"><use transform="matrix(0.010850694444444444,0,0,0.010850694444444444,0,0)" xlink:href="#aE"/><use transform="matrix(0.010850694444444444,0,0,0.010850694444444444,16.536458333333332,0)" xlink:href="#az"/><use transform="matrix(0.010850694444444444,0,0,0.010850694444444444,28.266059027777775,0)" xlink:href="#aF"/><use transform="matrix(0.010850694444444444,0,0,0.010850694444444444,41.40625,0)" xlink:href="#aG"/><use transform="matrix(0.010850694444444444,0,0,0.010850694444444444,53.88454861111112,0)" xlink:href="#ax"/><use transform="matrix(0.010850694444444444,0,0,0.010850694444444444,62.59765625,0)" xlink:href="#ay"/><use transform="matrix(0.010850694444444444,0,0,0.010850694444444444,67.97960069444444,0)" xlink:href="#aw"/></g><path d="M657 26c-323 0-524-166-541-416h195c15 169 171 246 346 246 202 0 356-106 356-265 5-203-294-238-475-293-239-73-380-191-380-389 0-252 224-419 512-419 294 0 499 171 508 396H992c-17-145-151-228-328-228-193 0-321 102-321 242 0 156 175 211 284 241l149 41c160 44 422 134 422 412 0 244-197 432-541 432" id="aH"/><g id="h"><use transform="matrix(0.010850694444444444,0,0,0.010850694444444444,0,0)" xlink:href="#aH"/><use transform="matrix(0.010850694444444444,0,0,0.010850694444444444,14.2578125,0)" xlink:href="#ay"/><use transform="matrix(0.010850694444444444,0,0,0.010850694444444444,19.639756944444443,0)" xlink:href="#az"/><use transform="matrix(0.010850694444444444,0,0,0.010850694444444444,31.36935763888889,0)" xlink:href="#aC"/><use transform="matrix(0.010850694444444444,0,0,0.010850694444444444,38.42230902777777,0)" xlink:href="#at"/><use transform="matrix(0.010850694444444444,0,0,0.010850694444444444,51.378038194444436,0)" xlink:href="#au"/><use transform="matrix(0.010850694444444444,0,0,0.010850694444444444,70.84418402777777,0)" xlink:href="#aG"/></g><path d="M180 0v-1490h901v168H370v510h643v168H370V0H180" id="aI"/><path d="M677 24c-213 0-288-135-325-197h-20V0H158v-1490h180v551h14c37-59 106-193 324-193 279 0 474 222 474 576 0 356-194 580-473 580zm-27-161c209 0 317-186 317-421 0-232-105-413-317-413-206 0-314 166-314 413 0 249 111 421 314 421" id="aJ"/><g id="i"><use transform="matrix(0.010850694444444444,0,0,0.010850694444444444,0,0)" xlink:href="#aI"/><use transform="matrix(0.010850694444444444,0,0,0.010850694444444444,13.118489583333332,0)" xlink:href="#ay"/><use transform="matrix(0.010850694444444444,0,0,0.010850694444444444,18.50043402777778,0)" xlink:href="#ax"/><use transform="matrix(0.010850694444444444,0,0,0.010850694444444444,26.497395833333336,0)" xlink:href="#at"/><use transform="matrix(0.010850694444444444,0,0,0.010850694444444444,39.453125,0)" xlink:href="#aJ"/><use transform="matrix(0.010850694444444444,0,0,0.010850694444444444,53.27690972222221,0)" xlink:href="#aG"/><use transform="matrix(0.010850694444444444,0,0,0.010850694444444444,65.75520833333333,0)" xlink:href="#az"/><use transform="matrix(0.010850694444444444,0,0,0.010850694444444444,77.48480902777777,0)" xlink:href="#at"/></g><g id="j"><use transform="matrix(0.010850694444444444,0,0,0.010850694444444444,0,0)" xlink:href="#aA"/><use transform="matrix(0.010850694444444444,0,0,0.010850694444444444,15.33203125,0)" xlink:href="#aB"/><use transform="matrix(0.010850694444444444,0,0,0.010850694444444444,28.02734375,0)" xlink:href="#aC"/><use transform="matrix(0.010850694444444444,0,0,0.010850694444444444,35.080295138888886,0)" xlink:href="#aw"/><use transform="matrix(0.010850694444444444,0,0,0.010850694444444444,48.404947916666664,0)" xlink:href="#ax"/><use transform="matrix(0.010850694444444444,0,0,0.010850694444444444,56.77083333333333,0)" xlink:href="#aD"/></g><path d="M180 0v-1490h528c311 0 458 177 458 395 0 191-114 278-244 313v14c139 9 302 137 302 371 0 225-148 397-499 397H180zm190-168h350c232 0 321-102 321-231 0-149-120-277-311-277H370v508zm0-668h328c160 0 286-101 286-255 0-129-87-231-280-231H370v486" id="aK"/><path d="M628 24c-324 0-524-230-524-574 0-343 198-582 503-582 237 0 487 146 487 559v75H286c9 234 145 362 343 362 132 0 231-58 273-172l174 48C1024-91 857 24 628 24zM287-650h624c-17-190-120-322-304-322-192 0-309 151-320 322zm237-614l140-294h201l-194 294H524" id="aL"/><g id="k"><use transform="matrix(0.010850694444444444,0,0,0.010850694444444444,0,0)" xlink:href="#aK"/><use transform="matrix(0.010850694444444444,0,0,0.010850694444444444,14.539930555555555,0)" xlink:href="#ay"/><use transform="matrix(0.010850694444444444,0,0,0.010850694444444444,19.921875,0)" xlink:href="#aw"/><use transform="matrix(0.010850694444444444,0,0,0.010850694444444444,33.24652777777778,0)" xlink:href="#au"/><use transform="matrix(0.010850694444444444,0,0,0.010850694444444444,52.71267361111112,0)" xlink:href="#aL"/><use transform="matrix(0.010850694444444444,0,0,0.010850694444444444,65.66840277777779,0)" xlink:href="#aC"/><use transform="matrix(0.010850694444444444,0,0,0.010850694444444444,72.93836805555556,0)" xlink:href="#ax"/><use transform="matrix(0.010850694444444444,0,0,0.010850694444444444,81.65147569444446,0)" xlink:href="#ay"/><use transform="matrix(0.010850694444444444,0,0,0.010850694444444444,87.0334201388889,0)" xlink:href="#aB"/><use transform="matrix(0.010850694444444444,0,0,0.010850694444444444,99.7287326388889,0)" xlink:href="#aw"/></g><path d="M577 24c-279 0-473-224-473-580 0-354 195-576 474-576 218 0 287 134 324 193h14v-551h180V0H922v-173h-20C865-111 790 24 577 24zm27-161c203 0 314-172 314-421 0-247-108-413-314-413-212 0-317 181-317 413 0 235 108 421 317 421" id="aM"/><path d="M338-1490V0H158v-1490h180" id="aN"/><g id="l"><use transform="matrix(0.010850694444444444,0,0,0.010850694444444444,0,0)" xlink:href="#aM"/><use transform="matrix(0.010850694444444444,0,0,0.010850694444444444,13.606770833333332,0)" xlink:href="#at"/><use transform="matrix(0.010850694444444444,0,0,0.010850694444444444,26.5625,0)" xlink:href="#aN"/></g><path d="M645 0H180v-1490h484c435 0 692 280 692 742 0 466-257 748-711 748zM370-168h263c363 0 539-218 539-580 0-358-176-574-521-574H370v1154" id="aO"/><path d="M481 0L54-1118h197c107 314 236 620 325 951 87-331 217-637 324-951h197L670 0H481" id="aP"/><g id="m"><use transform="matrix(0.010850694444444444,0,0,0.010850694444444444,0,0)" xlink:href="#aO"/><use transform="matrix(0.010850694444444444,0,0,0.010850694444444444,16.03732638888889,0)" xlink:href="#ay"/><use transform="matrix(0.010850694444444444,0,0,0.010850694444444444,21.419270833333336,0)" xlink:href="#az"/><use transform="matrix(0.010850694444444444,0,0,0.010850694444444444,33.14887152777778,0)" xlink:href="#av"/><use transform="matrix(0.010850694444444444,0,0,0.010850694444444444,46.75564236111111,0)" xlink:href="#aw"/><use transform="matrix(0.010850694444444444,0,0,0.010850694444444444,60.0802951388889,0)" xlink:href="#az"/><use transform="matrix(0.010850694444444444,0,0,0.010850694444444444,71.80989583333334,0)" xlink:href="#ay"/><use transform="matrix(0.010850694444444444,0,0,0.010850694444444444,77.19184027777779,0)" xlink:href="#aC"/><use transform="matrix(0.010850694444444444,0,0,0.010850694444444444,84.46180555555556,0)" xlink:href="#ay"/><use transform="matrix(0.010850694444444444,0,0,0.010850694444444444,89.84375,0)" xlink:href="#aP"/><use transform="matrix(0.010850694444444444,0,0,0.010850694444444444,101.8988715277778,0)" xlink:href="#aw"/></g><path d="M180 0v-1490h510c348 0 508 194 508 460 0 198-88 351-276 417L1256 0h-220L726-579c-117 2-238 0-356 1V0H180zm190-747h312c235 0 327-108 327-283 0-177-92-293-329-293H370v576" id="aQ"/><path d="M611 442c-248 0-391-105-460-228l146-94c47 65 117 165 314 165 178 0 307-82 307-266v-224h-17C863-141 792-18 576-18c-268 0-472-195-472-546 0-346 197-568 476-568 216 0 288 133 326 193h17v-179h175V29c0 289-215 413-487 413zm-5-620c203 0 314-146 314-390 0-237-108-403-314-403-213 0-319 180-319 403 0 230 109 390 319 390" id="aR"/><g id="n"><use transform="matrix(0.010850694444444444,0,0,0.010850694444444444,0,0)" xlink:href="#aQ"/><use transform="matrix(0.010850694444444444,0,0,0.010850694444444444,13.975694444444445,0)" xlink:href="#at"/><use transform="matrix(0.010850694444444444,0,0,0.010850694444444444,26.931423611111104,0)" xlink:href="#aR"/><use transform="matrix(0.010850694444444444,0,0,0.010850694444444444,40.55989583333333,0)" xlink:href="#ay"/><use transform="matrix(0.010850694444444444,0,0,0.010850694444444444,45.94184027777778,0)" xlink:href="#az"/><use transform="matrix(0.010850694444444444,0,0,0.010850694444444444,57.67144097222221,0)" xlink:href="#aC"/><use transform="matrix(0.010850694444444444,0,0,0.010850694444444444,64.94140624999999,0)" xlink:href="#ax"/><use transform="matrix(0.010850694444444444,0,0,0.010850694444444444,73.30729166666666,0)" xlink:href="#aG"/><use transform="matrix(0.010850694444444444,0,0,0.010850694444444444,85.78559027777777,0)" xlink:href="#ax"/><use transform="matrix(0.010850694444444444,0,0,0.010850694444444444,94.15147569444444,0)" xlink:href="#az"/><use transform="matrix(0.010850694444444444,0,0,0.010850694444444444,105.88107638888889,0)" xlink:href="#at"/></g><path d="M370-1490V0H180v-1490h190" id="aS"/><path d="M338-670V0H158v-1118h173l1 207c72-158 192-221 342-221 226 0 378 139 378 422V0H872v-695c0-172-96-275-252-275-161 0-282 109-282 300" id="aT"/><g id="o"><use transform="matrix(0.010850694444444444,0,0,0.010850694444444444,0,0)" xlink:href="#aS"/><use transform="matrix(0.010850694444444444,0,0,0.010850694444444444,5.967881944444445,0)" xlink:href="#aT"/><use transform="matrix(0.010850694444444444,0,0,0.010850694444444444,19.09722222222222,0)" xlink:href="#ay"/><use transform="matrix(0.010850694444444444,0,0,0.010850694444444444,24.479166666666664,0)" xlink:href="#aB"/><use transform="matrix(0.010850694444444444,0,0,0.010850694444444444,37.174479166666664,0)" xlink:href="#ay"/><use transform="matrix(0.010850694444444444,0,0,0.010850694444444444,42.55642361111111,0)" xlink:href="#aG"/><use transform="matrix(0.010850694444444444,0,0,0.010850694444444444,55.03472222222221,0)" xlink:href="#ax"/></g><path d="M613 24c-304 0-509-231-509-576 0-350 205-580 509-580 305 0 511 230 511 580 0 345-206 576-511 576zm0-161c226 0 329-195 329-415 0-222-103-419-329-419-223 0-326 196-326 419 0 220 103 415 326 415zm-79-1127l140-294h201l-194 294H534" id="aU"/><g id="p"><use transform="matrix(0.010850694444444444,0,0,0.010850694444444444,0,0)" xlink:href="#az"/><use transform="matrix(0.010850694444444444,0,0,0.010850694444444444,11.729600694444445,0)" xlink:href="#at"/><use transform="matrix(0.010850694444444444,0,0,0.010850694444444444,24.68532986111111,0)" xlink:href="#az"/><use transform="matrix(0.010850694444444444,0,0,0.010850694444444444,36.41493055555556,0)" xlink:href="#ay"/><use transform="matrix(0.010850694444444444,0,0,0.010850694444444444,41.796875,0)" xlink:href="#aU"/><use transform="matrix(0.010850694444444444,0,0,0.010850694444444444,55.12152777777778,0)" xlink:href="#aT"/></g><g id="q"><use transform="matrix(0.010850694444444444,0,0,0.010850694444444444,0,0)" xlink:href="#aQ"/><use transform="matrix(0.010850694444444444,0,0,0.010850694444444444,13.975694444444445,0)" xlink:href="#at"/><use transform="matrix(0.010850694444444444,0,0,0.010850694444444444,26.931423611111104,0)" xlink:href="#aB"/><use transform="matrix(0.010850694444444444,0,0,0.010850694444444444,39.62673611111111,0)" xlink:href="#aF"/><use transform="matrix(0.010850694444444444,0,0,0.010850694444444444,52.76692708333333,0)" xlink:href="#av"/><use transform="matrix(0.010850694444444444,0,0,0.010850694444444444,66.37369791666666,0)" xlink:href="#at"/><use transform="matrix(0.010850694444444444,0,0,0.010850694444444444,79.32942708333333,0)" xlink:href="#ax"/><use transform="matrix(0.010850694444444444,0,0,0.010850694444444444,87.6953125,0)" xlink:href="#aG"/><use transform="matrix(0.010850694444444444,0,0,0.010850694444444444,100.17361111111111,0)" xlink:href="#ax"/></g><path d="M338-670V0H158v-1118h173l1 207c72-158 192-221 342-221 226 0 378 139 378 422V0H872v-695c0-172-96-275-252-275-161 0-282 109-282 300zm398-643c-99 0-192-83-243-83-35 0-51 40-53 79H314c4-120 55-208 162-208 104 0 174 85 241 85 33 0 49-23 56-81h123c-4 126-62 208-160 208" id="aV"/><g id="r"><use transform="matrix(0.010850694444444444,0,0,0.010850694444444444,0,0)" xlink:href="#aB"/><use transform="matrix(0.010850694444444444,0,0,0.010850694444444444,12.6953125,0)" xlink:href="#aw"/><use transform="matrix(0.010850694444444444,0,0,0.010850694444444444,26.01996527777778,0)" xlink:href="#aT"/><use transform="matrix(0.010850694444444444,0,0,0.010850694444444444,39.14930555555556,0)" xlink:href="#aC"/><use transform="matrix(0.010850694444444444,0,0,0.010850694444444444,46.41927083333333,0)" xlink:href="#ax"/><use transform="matrix(0.010850694444444444,0,0,0.010850694444444444,54.78515625,0)" xlink:href="#aG"/><use transform="matrix(0.010850694444444444,0,0,0.010850694444444444,67.26345486111111,0)" xlink:href="#az"/><use transform="matrix(0.010850694444444444,0,0,0.010850694444444444,78.99305555555556,0)" xlink:href="#at"/><use transform="matrix(0.010850694444444444,0,0,0.010850694444444444,91.94878472222221,0)" xlink:href="#aV"/><use transform="matrix(0.010850694444444444,0,0,0.010850694444444444,105.078125,0)" xlink:href="#aG"/></g><g id="s"><use transform="matrix(0.010850694444444444,0,0,0.010850694444444444,0,0)" xlink:href="#aA"/><use transform="matrix(0.010850694444444444,0,0,0.010850694444444444,15.33203125,0)" xlink:href="#aF"/><use transform="matrix(0.010850694444444444,0,0,0.010850694444444444,28.47222222222222,0)" xlink:href="#aC"/><use transform="matrix(0.010850694444444444,0,0,0.010850694444444444,35.52517361111111,0)" xlink:href="#at"/><use transform="matrix(0.010850694444444444,0,0,0.010850694444444444,48.48090277777778,0)" xlink:href="#aT"/><use transform="matrix(0.010850694444444444,0,0,0.010850694444444444,61.61024305555555,0)" xlink:href="#aC"/><use transform="matrix(0.010850694444444444,0,0,0.010850694444444444,68.88020833333333,0)" xlink:href="#ay"/><use transform="matrix(0.010850694444444444,0,0,0.010850694444444444,74.26215277777777,0)" xlink:href="#aB"/><use transform="matrix(0.010850694444444444,0,0,0.010850694444444444,87.17447916666666,0)" xlink:href="#aG"/><use transform="matrix(0.010850694444444444,0,0,0.010850694444444444,99.65277777777777,0)" xlink:href="#aB"/><use transform="matrix(0.010850694444444444,0,0,0.010850694444444444,112.34809027777777,0)" xlink:href="#ay"/><use transform="matrix(0.010850694444444444,0,0,0.010850694444444444,117.73003472222221,0)" xlink:href="#aU"/><use transform="matrix(0.010850694444444444,0,0,0.010850694444444444,131.0546875,0)" xlink:href="#aT"/></g><g id="t"><use transform="matrix(0.010850694444444444,0,0,0.010850694444444444,0,0)" xlink:href="#aJ"/><use transform="matrix(0.010850694444444444,0,0,0.010850694444444444,13.606770833333332,0)" xlink:href="#ay"/><use transform="matrix(0.010850694444444444,0,0,0.010850694444444444,18.98871527777778,0)" xlink:href="#aw"/><use transform="matrix(0.010850694444444444,0,0,0.010850694444444444,32.31336805555556,0)" xlink:href="#au"/><use transform="matrix(0.010850694444444444,0,0,0.010850694444444444,51.779513888888886,0)" xlink:href="#aL"/><use transform="matrix(0.010850694444444444,0,0,0.010850694444444444,64.73524305555556,0)" xlink:href="#aC"/><use transform="matrix(0.010850694444444444,0,0,0.010850694444444444,72.00520833333333,0)" xlink:href="#ax"/><use transform="matrix(0.010850694444444444,0,0,0.010850694444444444,80.71831597222223,0)" xlink:href="#ay"/><use transform="matrix(0.010850694444444444,0,0,0.010850694444444444,86.10026041666667,0)" xlink:href="#aB"/><use transform="matrix(0.010850694444444444,0,0,0.010850694444444444,99.01258680555556,0)" xlink:href="#aG"/></g><path d="M789 20c-398 0-667-293-667-764 0-473 273-766 655-766 315 0 558 198 612 487h-196c-61-191-204-311-415-311-262 0-471 207-471 590 0 380 208 588 482 588 249 0 420-165 425-427H828v-166h572v163c0 370-256 606-611 606" id="aW"/><g id="u"><use transform="matrix(0.010850694444444444,0,0,0.010850694444444444,0,0)" xlink:href="#aW"/><use transform="matrix(0.010850694444444444,0,0,0.010850694444444444,16.57986111111111,0)" xlink:href="#at"/><use transform="matrix(0.010850694444444444,0,0,0.010850694444444444,29.535590277777775,0)" xlink:href="#az"/><use transform="matrix(0.010850694444444444,0,0,0.010850694444444444,41.26519097222222,0)" xlink:href="#aC"/><use transform="matrix(0.010850694444444444,0,0,0.010850694444444444,48.53515625,0)" xlink:href="#ay"/><use transform="matrix(0.010850694444444444,0,0,0.010850694444444444,53.91710069444444,0)" xlink:href="#aw"/><use transform="matrix(0.010850694444444444,0,0,0.010850694444444444,67.24175347222221,0)" xlink:href="#aT"/><use transform="matrix(0.010850694444444444,0,0,0.010850694444444444,80.37109374999999,0)" xlink:href="#aG"/><use transform="matrix(0.010850694444444444,0,0,0.010850694444444444,92.84939236111111,0)" xlink:href="#ax"/></g><path d="M126 0v-134l627-806v-11H146v-167h839v143L376-178v11h629V0H126" id="aX"/><g id="v"><use transform="matrix(0.010850694444444444,0,0,0.010850694444444444,0,0)" xlink:href="#aC"/><use transform="matrix(0.010850694444444444,0,0,0.010850694444444444,7.052951388888888,0)" xlink:href="#at"/><use transform="matrix(0.010850694444444444,0,0,0.010850694444444444,20.008680555555554,0)" xlink:href="#au"/><use transform="matrix(0.010850694444444444,0,0,0.010850694444444444,39.474826388888886,0)" xlink:href="#av"/><use transform="matrix(0.010850694444444444,0,0,0.010850694444444444,53.08159722222221,0)" xlink:href="#aw"/><use transform="matrix(0.010850694444444444,0,0,0.010850694444444444,66.40624999999999,0)" xlink:href="#ax"/><use transform="matrix(0.010850694444444444,0,0,0.010850694444444444,75.11935763888889,0)" xlink:href="#ay"/><use transform="matrix(0.010850694444444444,0,0,0.010850694444444444,80.50130208333333,0)" xlink:href="#aX"/><use transform="matrix(0.010850694444444444,0,0,0.010850694444444444,92.7734375,0)" xlink:href="#aG"/><use transform="matrix(0.010850694444444444,0,0,0.010850694444444444,105.25173611111111,0)" xlink:href="#aM"/><use transform="matrix(0.010850694444444444,0,0,0.010850694444444444,118.85850694444444,0)" xlink:href="#aw"/><use transform="matrix(0.010850694444444444,0,0,0.010850694444444444,132.18315972222223,0)" xlink:href="#ax"/><use transform="matrix(0.010850694444444444,0,0,0.010850694444444444,140.18012152777777,0)" xlink:href="#at"/><use transform="matrix(0.010850694444444444,0,0,0.010850694444444444,153.13585069444443,0)" xlink:href="#az"/></g><path d="M783 20c-382 0-661-292-661-764 0-473 279-766 661-766 302 0 548 182 601 489h-190c-42-204-217-313-411-313-268 0-476 208-476 590 0 381 209 588 476 588 195 0 369-110 411-313h190c-52 303-296 489-601 489" id="aY"/><g id="w"><use transform="matrix(0.010850694444444444,0,0,0.010850694444444444,0,0)" xlink:href="#aY"/><use transform="matrix(0.010850694444444444,0,0,0.010850694444444444,16.23263888888889,0)" xlink:href="#ax"/><use transform="matrix(0.010850694444444444,0,0,0.010850694444444444,24.229600694444443,0)" xlink:href="#at"/><use transform="matrix(0.010850694444444444,0,0,0.010850694444444444,37.40234375,0)" xlink:href="#aG"/><use transform="matrix(0.010850694444444444,0,0,0.010850694444444444,49.88064236111111,0)" xlink:href="#ax"/></g><g id="x"><use transform="matrix(0.010850694444444444,0,0,0.010850694444444444,0,0)" xlink:href="#aC"/><use transform="matrix(0.010850694444444444,0,0,0.010850694444444444,7.052951388888888,0)" xlink:href="#at"/><use transform="matrix(0.010850694444444444,0,0,0.010850694444444444,20.008680555555554,0)" xlink:href="#au"/><use transform="matrix(0.010850694444444444,0,0,0.010850694444444444,39.474826388888886,0)" xlink:href="#av"/><use transform="matrix(0.010850694444444444,0,0,0.010850694444444444,53.08159722222221,0)" xlink:href="#aw"/><use transform="matrix(0.010850694444444444,0,0,0.010850694444444444,66.40624999999999,0)" xlink:href="#ax"/><use transform="matrix(0.010850694444444444,0,0,0.010850694444444444,75.11935763888889,0)" xlink:href="#ay"/><use transform="matrix(0.010850694444444444,0,0,0.010850694444444444,80.50130208333333,0)" xlink:href="#aX"/><use transform="matrix(0.010850694444444444,0,0,0.010850694444444444,92.7734375,0)" xlink:href="#aG"/><use transform="matrix(0.010850694444444444,0,0,0.010850694444444444,105.25173611111111,0)" xlink:href="#aM"/><use transform="matrix(0.010850694444444444,0,0,0.010850694444444444,118.85850694444444,0)" xlink:href="#aw"/><use transform="matrix(0.010850694444444444,0,0,0.010850694444444444,132.18315972222223,0)" xlink:href="#ax"/></g><path d="M600 0L52-1490h200c166 485 304 806 458 1336 156-533 285-846 449-1336h202L819 0H600" id="aZ"/><g id="y"><use transform="matrix(0.010850694444444444,0,0,0.010850694444444444,0,0)" xlink:href="#aZ"/><use transform="matrix(0.010850694444444444,0,0,0.010850694444444444,14.20355902777778,0)" xlink:href="#at"/><use transform="matrix(0.010850694444444444,0,0,0.010850694444444444,27.159288194444443,0)" xlink:href="#ax"/></g><g id="z"><use transform="matrix(0.010850694444444444,0,0,0.010850694444444444,0,0)" xlink:href="#aC"/><use transform="matrix(0.010850694444444444,0,0,0.010850694444444444,7.052951388888888,0)" xlink:href="#at"/><use transform="matrix(0.010850694444444444,0,0,0.010850694444444444,20.008680555555554,0)" xlink:href="#au"/><use transform="matrix(0.010850694444444444,0,0,0.010850694444444444,39.474826388888886,0)" xlink:href="#av"/><use transform="matrix(0.010850694444444444,0,0,0.010850694444444444,53.08159722222221,0)" xlink:href="#aw"/><use transform="matrix(0.010850694444444444,0,0,0.010850694444444444,66.40624999999999,0)" xlink:href="#ax"/><use transform="matrix(0.010850694444444444,0,0,0.010850694444444444,75.11935763888889,0)" xlink:href="#ay"/><use transform="matrix(0.010850694444444444,0,0,0.010850694444444444,80.50130208333333,0)" xlink:href="#aX"/><use transform="matrix(0.010850694444444444,0,0,0.010850694444444444,92.7734375,0)" xlink:href="#aG"/><use transform="matrix(0.010850694444444444,0,0,0.010850694444444444,105.25173611111111,0)" xlink:href="#aM"/><use transform="matrix(0.010850694444444444,0,0,0.010850694444444444,118.85850694444444,0)" xlink:href="#aw"/><use transform="matrix(0.010850694444444444,0,0,0.010850694444444444,132.18315972222223,0)" xlink:href="#ax"/><use transform="matrix(0.010850694444444444,0,0,0.010850694444444444,140.18012152777777,0)" xlink:href="#at"/><use transform="matrix(0.010850694444444444,0,0,0.010850694444444444,153.13585069444443,0)" xlink:href="#az"/></g><g id="A"><use transform="matrix(0.010850694444444444,0,0,0.010850694444444444,0,0)" xlink:href="#at"/><use transform="matrix(0.010850694444444444,0,0,0.010850694444444444,12.955729166666666,0)" xlink:href="#aT"/></g><g id="B"><use transform="matrix(0.010850694444444444,0,0,0.010850694444444444,0,0)" xlink:href="#aC"/><use transform="matrix(0.010850694444444444,0,0,0.010850694444444444,7.269965277777778,0)" xlink:href="#ay"/><use transform="matrix(0.010850694444444444,0,0,0.010850694444444444,12.651909722222221,0)" xlink:href="#at"/><use transform="matrix(0.010850694444444444,0,0,0.010850694444444444,25.60763888888889,0)" xlink:href="#au"/><use transform="matrix(0.010850694444444444,0,0,0.010850694444444444,45.07378472222221,0)" xlink:href="#av"/><use transform="matrix(0.010850694444444444,0,0,0.010850694444444444,58.68055555555554,0)" xlink:href="#aw"/></g><g id="C"><use transform="matrix(0.010850694444444444,0,0,0.010850694444444444,0,0)" xlink:href="#ax"/><use transform="matrix(0.010850694444444444,0,0,0.010850694444444444,7.996961805555555,0)" xlink:href="#at"/><use transform="matrix(0.010850694444444444,0,0,0.010850694444444444,21.16970486111111,0)" xlink:href="#aG"/><use transform="matrix(0.010850694444444444,0,0,0.010850694444444444,33.64800347222222,0)" xlink:href="#aN"/></g><path d="M180 0v-1490h908v168H370v486h669v168H370v500h727V0H180" id="ba"/><g id="D"><use transform="matrix(0.010850694444444444,0,0,0.010850694444444444,0,0)" xlink:href="#ba"/><use transform="matrix(0.010850694444444444,0,0,0.010850694444444444,13.35720486111111,0)" xlink:href="#aM"/><use transform="matrix(0.010850694444444444,0,0,0.010850694444444444,26.963975694444443,0)" xlink:href="#ay"/><use transform="matrix(0.010850694444444444,0,0,0.010850694444444444,32.345920138888886,0)" xlink:href="#aC"/><use transform="matrix(0.010850694444444444,0,0,0.010850694444444444,39.72439236111111,0)" xlink:href="#aG"/><use transform="matrix(0.010850694444444444,0,0,0.010850694444444444,52.20269097222221,0)" xlink:href="#ax"/></g><g id="E"><use transform="matrix(0.010850694444444444,0,0,0.010850694444444444,0,0)" xlink:href="#ba"/><use transform="matrix(0.010850694444444444,0,0,0.010850694444444444,13.35720486111111,0)" xlink:href="#aN"/><use transform="matrix(0.010850694444444444,0,0,0.010850694444444444,18.739149305555557,0)" xlink:href="#ay"/><use transform="matrix(0.010850694444444444,0,0,0.010850694444444444,24.12109375,0)" xlink:href="#au"/><use transform="matrix(0.010850694444444444,0,0,0.010850694444444444,43.58723958333333,0)" xlink:href="#ay"/><use transform="matrix(0.010850694444444444,0,0,0.010850694444444444,48.96918402777778,0)" xlink:href="#aT"/><use transform="matrix(0.010850694444444444,0,0,0.010850694444444444,62.09852430555555,0)" xlink:href="#aG"/><use transform="matrix(0.010850694444444444,0,0,0.010850694444444444,74.57682291666666,0)" xlink:href="#ax"/></g><g id="F"><use transform="matrix(0.010850694444444444,0,0,0.010850694444444444,0,0)" xlink:href="#aH"/><use transform="matrix(0.010850694444444444,0,0,0.010850694444444444,14.2578125,0)" xlink:href="#ay"/><use transform="matrix(0.010850694444444444,0,0,0.010850694444444444,19.639756944444443,0)" xlink:href="#aT"/><use transform="matrix(0.010850694444444444,0,0,0.010850694444444444,32.76909722222222,0)" xlink:href="#aB"/><use transform="matrix(0.010850694444444444,0,0,0.010850694444444444,45.46440972222222,0)" xlink:href="#ax"/><use transform="matrix(0.010850694444444444,0,0,0.010850694444444444,53.46137152777778,0)" xlink:href="#aw"/><use transform="matrix(0.010850694444444444,0,0,0.010850694444444444,66.78602430555554,0)" xlink:href="#aT"/><use transform="matrix(0.010850694444444444,0,0,0.010850694444444444,79.91536458333331,0)" xlink:href="#ay"/><use transform="matrix(0.010850694444444444,0,0,0.010850694444444444,85.29730902777776,0)" xlink:href="#aX"/><use transform="matrix(0.010850694444444444,0,0,0.010850694444444444,97.56944444444441,0)" xlink:href="#aG"/><use transform="matrix(0.010850694444444444,0,0,0.010850694444444444,110.04774305555556,0)" xlink:href="#ax"/></g><g id="G"><use transform="matrix(0.010850694444444444,0,0,0.010850694444444444,0,0)" xlink:href="#aN"/><use transform="matrix(0.010850694444444444,0,0,0.010850694444444444,5.381944444444445,0)" xlink:href="#aG"/></g><g id="H"><use transform="matrix(0.010850694444444444,0,0,0.010850694444444444,0,0)" xlink:href="#aT"/><use transform="matrix(0.010850694444444444,0,0,0.010850694444444444,13.129340277777777,0)" xlink:href="#aF"/><use transform="matrix(0.010850694444444444,0,0,0.010850694444444444,26.26953125,0)" xlink:href="#aJ"/><use transform="matrix(0.010850694444444444,0,0,0.010850694444444444,39.87630208333333,0)" xlink:href="#at"/></g><path d="M678-1118v154H420V0H240v-964H20v-154h220v-149c0-194 155-293 318-293 85 0 141 18 168 30l-50 154c-19-6-47-17-97-17-111 0-159 58-159 166v109h258" id="bb"/><g id="I"><use transform="matrix(0.010850694444444444,0,0,0.010850694444444444,0,0)" xlink:href="#av"/><use transform="matrix(0.010850694444444444,0,0,0.010850694444444444,13.606770833333332,0)" xlink:href="#at"/><use transform="matrix(0.010850694444444444,0,0,0.010850694444444444,26.5625,0)" xlink:href="#ax"/><use transform="matrix(0.010850694444444444,0,0,0.010850694444444444,35.275607638888886,0)" xlink:href="#bb"/><use transform="matrix(0.010850694444444444,0,0,0.010850694444444444,43.50043402777777,0)" xlink:href="#ay"/><use transform="matrix(0.010850694444444444,0,0,0.010850694444444444,48.88237847222221,0)" xlink:href="#aN"/></g><g id="J"><use transform="matrix(0.010850694444444444,0,0,0.010850694444444444,0,0)" xlink:href="#aA"/><use transform="matrix(0.010850694444444444,0,0,0.010850694444444444,15.33203125,0)" xlink:href="#aB"/><use transform="matrix(0.010850694444444444,0,0,0.010850694444444444,28.02734375,0)" xlink:href="#aC"/><use transform="matrix(0.010850694444444444,0,0,0.010850694444444444,35.29730902777778,0)" xlink:href="#aF"/><use transform="matrix(0.010850694444444444,0,0,0.010850694444444444,48.4375,0)" xlink:href="#aG"/><use transform="matrix(0.010850694444444444,0,0,0.010850694444444444,60.91579861111112,0)" xlink:href="#aN"/><use transform="matrix(0.010850694444444444,0,0,0.010850694444444444,66.29774305555556,0)" xlink:href="#ay"/><use transform="matrix(0.010850694444444444,0,0,0.010850694444444444,71.6796875,0)" xlink:href="#aX"/><use transform="matrix(0.010850694444444444,0,0,0.010850694444444444,83.95182291666667,0)" xlink:href="#aG"/><use transform="matrix(0.010850694444444444,0,0,0.010850694444444444,96.4301215277778,0)" xlink:href="#ax"/></g><g id="K"><use transform="matrix(0.010850694444444444,0,0,0.010850694444444444,0,0)" xlink:href="#aT"/><use transform="matrix(0.010850694444444444,0,0,0.010850694444444444,13.129340277777777,0)" xlink:href="#aw"/><use transform="matrix(0.010850694444444444,0,0,0.010850694444444444,26.453993055555554,0)" xlink:href="#au"/><use transform="matrix(0.010850694444444444,0,0,0.010850694444444444,45.920138888888886,0)" xlink:href="#aJ"/><use transform="matrix(0.010850694444444444,0,0,0.010850694444444444,59.52690972222221,0)" xlink:href="#ax"/><use transform="matrix(0.010850694444444444,0,0,0.010850694444444444,67.52387152777777,0)" xlink:href="#at"/></g><g id="L"><use transform="matrix(0.010850694444444444,0,0,0.010850694444444444,0,0)" xlink:href="#aM"/><use transform="matrix(0.010850694444444444,0,0,0.010850694444444444,13.606770833333332,0)" xlink:href="#at"/><use transform="matrix(0.010850694444444444,0,0,0.010850694444444444,26.5625,0)" xlink:href="#az"/><use transform="matrix(0.010850694444444444,0,0,0.010850694444444444,38.29210069444444,0)" xlink:href="#aB"/><use transform="matrix(0.010850694444444444,0,0,0.010850694444444444,50.98741319444444,0)" xlink:href="#ax"/><use transform="matrix(0.010850694444444444,0,0,0.010850694444444444,59.70052083333333,0)" xlink:href="#ay"/><use transform="matrix(0.010850694444444444,0,0,0.010850694444444444,65.08246527777777,0)" xlink:href="#av"/><use transform="matrix(0.010850694444444444,0,0,0.010850694444444444,78.6892361111111,0)" xlink:href="#aB"/><use transform="matrix(0.010850694444444444,0,0,0.010850694444444444,91.38454861111111,0)" xlink:href="#ay"/><use transform="matrix(0.010850694444444444,0,0,0.010850694444444444,96.76649305555556,0)" xlink:href="#aU"/><use transform="matrix(0.010850694444444444,0,0,0.010850694444444444,110.09114583333331,0)" xlink:href="#aT"/></g><g id="M"><use transform="matrix(0.010850694444444444,0,0,0.010850694444444444,0,0)" xlink:href="#bb"/><use transform="matrix(0.010850694444444444,0,0,0.010850694444444444,7.573784722222222,0)" xlink:href="#aw"/><use transform="matrix(0.010850694444444444,0,0,0.010850694444444444,20.8984375,0)" xlink:href="#aC"/><use transform="matrix(0.010850694444444444,0,0,0.010850694444444444,27.95138888888889,0)" xlink:href="#aw"/></g><g id="N"><use transform="matrix(0.010850694444444444,0,0,0.010850694444444444,0,0)" xlink:href="#aM"/><use transform="matrix(0.010850694444444444,0,0,0.010850694444444444,13.606770833333332,0)" xlink:href="#at"/></g><g id="O"><use transform="matrix(0.010850694444444444,0,0,0.010850694444444444,0,0)" xlink:href="#aZ"/><use transform="matrix(0.010850694444444444,0,0,0.010850694444444444,15.33203125,0)" xlink:href="#ay"/><use transform="matrix(0.010850694444444444,0,0,0.010850694444444444,20.713975694444443,0)" xlink:href="#az"/><use transform="matrix(0.010850694444444444,0,0,0.010850694444444444,32.443576388888886,0)" xlink:href="#aF"/><use transform="matrix(0.010850694444444444,0,0,0.010850694444444444,45.58376736111111,0)" xlink:href="#aG"/><use transform="matrix(0.010850694444444444,0,0,0.010850694444444444,58.06206597222221,0)" xlink:href="#aN"/><use transform="matrix(0.010850694444444444,0,0,0.010850694444444444,63.44401041666666,0)" xlink:href="#ay"/><use transform="matrix(0.010850694444444444,0,0,0.010850694444444444,68.8259548611111,0)" xlink:href="#aX"/><use transform="matrix(0.010850694444444444,0,0,0.010850694444444444,81.09809027777777,0)" xlink:href="#aG"/><use transform="matrix(0.010850694444444444,0,0,0.010850694444444444,93.57638888888889,0)" xlink:href="#ax"/></g><path d="M158 0v-1118h180V0H158zm12-1264l140-294h201l-194 294H170" id="bc"/><g id="P"><use transform="matrix(0.010850694444444444,0,0,0.010850694444444444,0,0)" xlink:href="#aG"/><use transform="matrix(0.010850694444444444,0,0,0.010850694444444444,12.47829861111111,0)" xlink:href="#aT"/><use transform="matrix(0.010850694444444444,0,0,0.010850694444444444,25.60763888888889,0)" xlink:href="#aG"/><use transform="matrix(0.010850694444444444,0,0,0.010850694444444444,38.0859375,0)" xlink:href="#aN"/><use transform="matrix(0.010850694444444444,0,0,0.010850694444444444,43.46788194444444,0)" xlink:href="#bc"/><use transform="matrix(0.010850694444444444,0,0,0.010850694444444444,48.849826388888886,0)" xlink:href="#aC"/><use transform="matrix(0.010850694444444444,0,0,0.010850694444444444,56.119791666666664,0)" xlink:href="#ay"/><use transform="matrix(0.010850694444444444,0,0,0.010850694444444444,61.50173611111111,0)" xlink:href="#aB"/><use transform="matrix(0.010850694444444444,0,0,0.010850694444444444,74.4140625,0)" xlink:href="#aG"/><use transform="matrix(0.010850694444444444,0,0,0.010850694444444444,86.89236111111111,0)" xlink:href="#az"/></g><g id="Q"><use transform="matrix(0.010850694444444444,0,0,0.010850694444444444,0,0)" xlink:href="#aZ"/><use transform="matrix(0.010850694444444444,0,0,0.010850694444444444,14.20355902777778,0)" xlink:href="#at"/><use transform="matrix(0.010850694444444444,0,0,0.010850694444444444,27.159288194444443,0)" xlink:href="#ax"/></g><path d="M338-670V0H158v-1490h180v566c73-149 190-208 336-208 226 0 379 139 379 422V0H872v-695c0-172-96-275-252-275-161 0-282 109-282 300" id="bd"/><g id="R"><use transform="matrix(0.010850694444444444,0,0,0.010850694444444444,0,0)" xlink:href="#bd"/><use transform="matrix(0.010850694444444444,0,0,0.010850694444444444,13.140190972222221,0)" xlink:href="#at"/><use transform="matrix(0.010850694444444444,0,0,0.010850694444444444,26.31293402777778,0)" xlink:href="#aG"/><use transform="matrix(0.010850694444444444,0,0,0.010850694444444444,38.791232638888886,0)" xlink:href="#aC"/><use transform="matrix(0.010850694444444444,0,0,0.010850694444444444,46.061197916666664,0)" xlink:href="#au"/><use transform="matrix(0.010850694444444444,0,0,0.010850694444444444,65.52734375,0)" xlink:href="#aG"/><use transform="matrix(0.010850694444444444,0,0,0.010850694444444444,78.00564236111111,0)" xlink:href="#av"/></g><g id="S"><use transform="matrix(0.010850694444444444,0,0,0.010850694444444444,0,0)" xlink:href="#aM"/><use transform="matrix(0.010850694444444444,0,0,0.010850694444444444,13.606770833333332,0)" xlink:href="#at"/></g><g id="T"><use transform="matrix(0.010850694444444444,0,0,0.010850694444444444,0,0)" xlink:href="#aB"/><use transform="matrix(0.010850694444444444,0,0,0.010850694444444444,12.6953125,0)" xlink:href="#aw"/><use transform="matrix(0.010850694444444444,0,0,0.010850694444444444,26.01996527777778,0)" xlink:href="#aT"/><use transform="matrix(0.010850694444444444,0,0,0.010850694444444444,39.14930555555556,0)" xlink:href="#aC"/><use transform="matrix(0.010850694444444444,0,0,0.010850694444444444,46.41927083333333,0)" xlink:href="#ax"/><use transform="matrix(0.010850694444444444,0,0,0.010850694444444444,55.13237847222222,0)" xlink:href="#ay"/><use transform="matrix(0.010850694444444444,0,0,0.010850694444444444,60.514322916666664,0)" xlink:href="#aJ"/><use transform="matrix(0.010850694444444444,0,0,0.010850694444444444,74.12109375,0)" xlink:href="#aF"/><use transform="matrix(0.010850694444444444,0,0,0.010850694444444444,87.26128472222223,0)" xlink:href="#aB"/><use transform="matrix(0.010850694444444444,0,0,0.010850694444444444,99.95659722222221,0)" xlink:href="#ay"/><use transform="matrix(0.010850694444444444,0,0,0.010850694444444444,105.33854166666666,0)" xlink:href="#aU"/><use transform="matrix(0.010850694444444444,0,0,0.010850694444444444,118.66319444444444,0)" xlink:href="#aT"/></g><g id="U"><use transform="matrix(0.010850694444444444,0,0,0.010850694444444444,0,0)" xlink:href="#aG"/><use transform="matrix(0.010850694444444444,0,0,0.010850694444444444,12.47829861111111,0)" xlink:href="#aT"/><use transform="matrix(0.010850694444444444,0,0,0.010850694444444444,25.60763888888889,0)" xlink:href="#aF"/><use transform="matrix(0.010850694444444444,0,0,0.010850694444444444,38.74782986111111,0)" xlink:href="#aG"/><use transform="matrix(0.010850694444444444,0,0,0.010850694444444444,51.22612847222221,0)" xlink:href="#aN"/></g><g id="V"><use transform="matrix(0.010850694444444444,0,0,0.010850694444444444,0,0)" xlink:href="#aH"/><use transform="matrix(0.010850694444444444,0,0,0.010850694444444444,14.2578125,0)" xlink:href="#at"/><use transform="matrix(0.010850694444444444,0,0,0.010850694444444444,27.213541666666664,0)" xlink:href="#aN"/><use transform="matrix(0.010850694444444444,0,0,0.010850694444444444,32.59548611111111,0)" xlink:href="#at"/><use transform="matrix(0.010850694444444444,0,0,0.010850694444444444,45.55121527777778,0)" xlink:href="#aB"/><use transform="matrix(0.010850694444444444,0,0,0.010850694444444444,58.24652777777778,0)" xlink:href="#aB"/><use transform="matrix(0.010850694444444444,0,0,0.010850694444444444,70.94184027777777,0)" xlink:href="#ay"/><use transform="matrix(0.010850694444444444,0,0,0.010850694444444444,76.32378472222221,0)" xlink:href="#aw"/><use transform="matrix(0.010850694444444444,0,0,0.010850694444444444,89.64843749999997,0)" xlink:href="#aT"/><use transform="matrix(0.010850694444444444,0,0,0.010850694444444444,102.77777777777776,0)" xlink:href="#aG"/><use transform="matrix(0.010850694444444444,0,0,0.010850694444444444,115.25607638888887,0)" xlink:href="#ax"/></g><g id="W"><use transform="matrix(0.010850694444444444,0,0,0.010850694444444444,0,0)" xlink:href="#ay"/><use transform="matrix(0.010850694444444444,0,0,0.010850694444444444,5.381944444444445,0)" xlink:href="#aM"/><use transform="matrix(0.010850694444444444,0,0,0.010850694444444444,18.98871527777778,0)" xlink:href="#ay"/><use transform="matrix(0.010850694444444444,0,0,0.010850694444444444,24.37065972222222,0)" xlink:href="#aw"/><use transform="matrix(0.010850694444444444,0,0,0.010850694444444444,37.6953125,0)" xlink:href="#au"/><use transform="matrix(0.010850694444444444,0,0,0.010850694444444444,57.16145833333333,0)" xlink:href="#aG"/></g><g id="X"><use transform="matrix(0.010850694444444444,0,0,0.010850694444444444,0,0)" xlink:href="#aY"/><use transform="matrix(0.010850694444444444,0,0,0.010850694444444444,16.23263888888889,0)" xlink:href="#at"/><use transform="matrix(0.010850694444444444,0,0,0.010850694444444444,29.18836805555556,0)" xlink:href="#ax"/><use transform="matrix(0.010850694444444444,0,0,0.010850694444444444,37.90147569444444,0)" xlink:href="#ax"/><use transform="matrix(0.010850694444444444,0,0,0.010850694444444444,46.26736111111111,0)" xlink:href="#aG"/><use transform="matrix(0.010850694444444444,0,0,0.010850694444444444,58.74565972222221,0)" xlink:href="#ax"/></g><g id="Y"><use transform="matrix(0.010850694444444444,0,0,0.010850694444444444,0,0)" xlink:href="#az"/><use transform="matrix(0.010850694444444444,0,0,0.010850694444444444,11.729600694444445,0)" xlink:href="#at"/><use transform="matrix(0.010850694444444444,0,0,0.010850694444444444,24.68532986111111,0)" xlink:href="#az"/><use transform="matrix(0.010850694444444444,0,0,0.010850694444444444,36.41493055555556,0)" xlink:href="#ay"/><use transform="matrix(0.010850694444444444,0,0,0.010850694444444444,41.796875,0)" xlink:href="#aU"/><use transform="matrix(0.010850694444444444,0,0,0.010850694444444444,55.12152777777778,0)" xlink:href="#aT"/></g><path d="M471 26C259 26 90-98 90-318c0-256 228-303 435-329 202-27 287-16 287-108 0-139-79-219-234-219-161 0-248 86-283 164l-173-57c86-203 278-265 451-265 150 0 419 46 419 395V0H815v-152h-12C765-73 660 26 471 26zm31-159c199 0 310-134 310-271v-155c-30 35-226 55-295 64-131 17-246 59-246 186 0 116 97 176 231 176zm-23-1131l140-294h201l-194 294H479" id="be"/><g id="Z"><use transform="matrix(0.010850694444444444,0,0,0.010850694444444444,0,0)" xlink:href="#aG"/><use transform="matrix(0.010850694444444444,0,0,0.010850694444444444,12.47829861111111,0)" xlink:href="#aF"/><use transform="matrix(0.010850694444444444,0,0,0.010850694444444444,25.618489583333332,0)" xlink:href="#aC"/><use transform="matrix(0.010850694444444444,0,0,0.010850694444444444,32.67144097222222,0)" xlink:href="#aw"/><use transform="matrix(0.010850694444444444,0,0,0.010850694444444444,45.99609375,0)" xlink:href="#au"/><use transform="matrix(0.010850694444444444,0,0,0.010850694444444444,65.46223958333333,0)" xlink:href="#be"/><use transform="matrix(0.010850694444444444,0,0,0.010850694444444444,77.94053819444444,0)" xlink:href="#aC"/><use transform="matrix(0.010850694444444444,0,0,0.010850694444444444,85.21050347222221,0)" xlink:href="#ay"/><use transform="matrix(0.010850694444444444,0,0,0.010850694444444444,90.59244791666666,0)" xlink:href="#aB"/><use transform="matrix(0.010850694444444444,0,0,0.010850694444444444,103.50477430555556,0)" xlink:href="#aG"/></g><g id="aa"><use transform="matrix(0.010850694444444444,0,0,0.010850694444444444,0,0)" xlink:href="#av"/><use transform="matrix(0.010850694444444444,0,0,0.010850694444444444,13.606770833333332,0)" xlink:href="#aw"/><use transform="matrix(0.010850694444444444,0,0,0.010850694444444444,26.931423611111104,0)" xlink:href="#ax"/></g><g id="ab"><use transform="matrix(0.010850694444444444,0,0,0.010850694444444444,0,0)" xlink:href="#ay"/><use transform="matrix(0.010850694444444444,0,0,0.010850694444444444,5.381944444444445,0)" xlink:href="#aT"/><use transform="matrix(0.010850694444444444,0,0,0.010850694444444444,18.51128472222222,0)" xlink:href="#aG"/><use transform="matrix(0.010850694444444444,0,0,0.010850694444444444,30.989583333333332,0)" xlink:href="#aB"/><use transform="matrix(0.010850694444444444,0,0,0.010850694444444444,43.68489583333333,0)" xlink:href="#aC"/><use transform="matrix(0.010850694444444444,0,0,0.010850694444444444,50.95486111111111,0)" xlink:href="#ay"/><use transform="matrix(0.010850694444444444,0,0,0.010850694444444444,56.33680555555555,0)" xlink:href="#aP"/><use transform="matrix(0.010850694444444444,0,0,0.010850694444444444,68.8259548611111,0)" xlink:href="#ay"/><use transform="matrix(0.010850694444444444,0,0,0.010850694444444444,74.20789930555554,0)" xlink:href="#aM"/><use transform="matrix(0.010850694444444444,0,0,0.010850694444444444,87.81467013888887,0)" xlink:href="#aG"/><use transform="matrix(0.010850694444444444,0,0,0.010850694444444444,100.29296874999997,0)" xlink:href="#aM"/></g><g id="ac"><use transform="matrix(0.010850694444444444,0,0,0.010850694444444444,0,0)" xlink:href="#aY"/><use transform="matrix(0.010850694444444444,0,0,0.010850694444444444,16.23263888888889,0)" xlink:href="#aw"/><use transform="matrix(0.010850694444444444,0,0,0.010850694444444444,29.557291666666664,0)" xlink:href="#aT"/><use transform="matrix(0.010850694444444444,0,0,0.010850694444444444,42.68663194444444,0)" xlink:href="#bb"/><use transform="matrix(0.010850694444444444,0,0,0.010850694444444444,50.91145833333333,0)" xlink:href="#ay"/><use transform="matrix(0.010850694444444444,0,0,0.010850694444444444,56.29340277777778,0)" xlink:href="#aR"/><use transform="matrix(0.010850694444444444,0,0,0.010850694444444444,69.921875,0)" xlink:href="#aF"/><use transform="matrix(0.010850694444444444,0,0,0.010850694444444444,83.06206597222223,0)" xlink:href="#ax"/><use transform="matrix(0.010850694444444444,0,0,0.010850694444444444,91.4279513888889,0)" xlink:href="#aG"/><use transform="matrix(0.010850694444444444,0,0,0.010850694444444444,103.90625000000001,0)" xlink:href="#ax"/></g><g id="ad"><use transform="matrix(0.010850694444444444,0,0,0.010850694444444444,0,0)" xlink:href="#aG"/><use transform="matrix(0.010850694444444444,0,0,0.010850694444444444,12.47829861111111,0)" xlink:href="#aB"/><use transform="matrix(0.010850694444444444,0,0,0.010850694444444444,25.17361111111111,0)" xlink:href="#aB"/><use transform="matrix(0.010850694444444444,0,0,0.010850694444444444,37.868923611111114,0)" xlink:href="#at"/><use transform="matrix(0.010850694444444444,0,0,0.010850694444444444,50.82465277777778,0)" xlink:href="#az"/><use transform="matrix(0.010850694444444444,0,0,0.010850694444444444,62.55425347222222,0)" xlink:href="#ay"/><use transform="matrix(0.010850694444444444,0,0,0.010850694444444444,67.93619791666667,0)" xlink:href="#aJ"/><use transform="matrix(0.010850694444444444,0,0,0.010850694444444444,81.54296875,0)" xlink:href="#ay"/><use transform="matrix(0.010850694444444444,0,0,0.010850694444444444,86.92491319444444,0)" xlink:href="#aN"/><use transform="matrix(0.010850694444444444,0,0,0.010850694444444444,92.30685763888889,0)" xlink:href="#ay"/><use transform="matrix(0.010850694444444444,0,0,0.010850694444444444,97.68880208333333,0)" xlink:href="#aM"/><use transform="matrix(0.010850694444444444,0,0,0.010850694444444444,111.29557291666666,0)" xlink:href="#aG"/><use transform="matrix(0.010850694444444444,0,0,0.010850694444444444,123.77387152777777,0)" xlink:href="#aM"/></g><path fill="#3a414a" d="M579 22C270 22 81-162 81-393c0-177 110-281 274-393-80-101-143-210-143-345 0-213 160-377 403-377 238 0 385 158 385 351 0 138-76 251-198 340l-89 64 251 289c39-73 63-161 63-258h251c0 203-53 358-134 465L1367 0h-316l-91-101C852-17 708 22 579 22zm-69-628c-83 57-139 119-136 201 0 113 86 185 214 185 72 0 145-22 210-63zm56-319c74-50 193-114 190-218 0-69-50-123-139-123s-146 55-146 138c0 67 36 129 95 203" id="bf"/><path fill="#3a414a" d="M428-1490V0H128v-1490h300" id="bg"/><path fill="#3a414a" d="M683-1118v229H474v562c0 71 29 104 102 104 23 0 73-7 95-13l43 225C647 9 580 16 520 16 296 16 174-96 174-301v-588H20v-229h154v-266h300v266h209" id="bh"/><path fill="#3a414a" d="M119 395l88-620h300L323 395H119zM360-723c-97 0-173-75-173-172s76-172 173-172c98 0 174 75 174 172s-76 172-174 172" id="bi"/><path fill="#3a414a" d="M625 442c-280 0-454-114-503-274l258-72c28 63 97 128 243 128 153 0 246-69 246-216v-206h-23C805-108 717-16 536-16 284-16 81-191 81-561c0-378 208-571 456-571 188 0 280 113 321 202h13v-188h295V-9c0 303-226 451-541 451zm5-686c153 0 240-119 240-319 0-198-86-329-240-329-158 0-241 137-241 329 0 195 85 319 241 319" id="bj"/><g id="ae"><use transform="matrix(0.008680555555555556,0,0,0.008680555555555556,0,0)" xlink:href="#bf"/><use transform="matrix(0.008680555555555556,0,0,0.008680555555555556,11.944444444444445,0)" xlink:href="#bg"/><use transform="matrix(0.008680555555555556,0,0,0.008680555555555556,17.022569444444443,0)" xlink:href="#bh"/><use transform="matrix(0.008680555555555556,0,0,0.008680555555555556,23.53298611111111,0)" xlink:href="#bi"/><use transform="matrix(0.008680555555555556,0,0,0.008680555555555556,29.62673611111111,0)" xlink:href="#bf"/><use transform="matrix(0.008680555555555556,0,0,0.008680555555555556,41.57118055555556,0)" xlink:href="#bj"/><use transform="matrix(0.008680555555555556,0,0,0.008680555555555556,52.80381944444445,0)" xlink:href="#bh"/><use transform="matrix(0.008680555555555556,0,0,0.008680555555555556,59.31423611111111,0)" xlink:href="#bi"/></g></defs></g></svg>