<svg xmlns="http://www.w3.org/2000/svg" xmlns:xlink="http://www.w3.org/1999/xlink" contentStyleType="text/css" data-diagram-type="CLASS" height="1316px" preserveAspectRatio="none" style="width:1433px;height:1316px;background:#FFFFFF;" version="1.1" viewBox="0 0 1433 1316" width="1433px" zoomAndPan="magnify"><?plantuml 1.2026.7beta1?><defs/><g><g class="title" data-source-line="1"><text fill="#000000" font-family="sans-serif" font-size="14" font-weight="700" lengthAdjust="spacing" textLength="460.332" x="482.834" y="22.9951">TEMPORIS - UML 2.5 CLASS DIAGRAM (MVVM + FIREBASE)</text></g><!--cluster presentation--><g class="cluster" data-qualified-name="presentation" data-source-line="27" id="ent0001"><rect fill="#DCEEFF" height="147.89" rx="2.5" ry="2.5" style="stroke:#4F81BD;stroke-width:1.5;" width="502" x="630" y="44.2969"/><text fill="#000000" font-family="sans-serif" font-size="14" font-weight="700" lengthAdjust="spacing" textLength="101.4316" x="830.2842" y="59.292">presentation</text></g><!--cluster viewmodel--><g class="cluster" data-qualified-name="viewmodel" data-source-line="51" id="ent0005"><rect fill="#DFF2E1" height="164.19" rx="2.5" ry="2.5" style="stroke:#4F81BD;stroke-width:1.5;" width="577" x="570" y="225.1869"/><text fill="#000000" font-family="sans-serif" font-size="14" font-weight="700" lengthAdjust="spacing" textLength="84.875" x="816.0625" y="240.182">viewmodel</text></g><!--cluster repository--><g class="cluster" data-qualified-name="repository" data-source-line="77" id="ent0009"><rect fill="#FFF2CC" height="320.34" rx="2.5" ry="2.5" style="stroke:#4F81BD;stroke-width:1.5;" width="248" x="1171" y="249.6369"/><text fill="#000000" font-family="sans-serif" font-size="14" font-weight="700" lengthAdjust="spacing" textLength="81.5117" x="1254.2441" y="264.632">repository</text></g><!--cluster model--><g class="cluster" data-qualified-name="model" data-source-line="97" id="ent0013"><rect fill="#FDE9E7" height="699.73" rx="2.5" ry="2.5" style="stroke:#4F81BD;stroke-width:1.5;" width="451" x="559" y="602.9769"/><text fill="#000000" font-family="sans-serif" font-size="14" font-weight="700" lengthAdjust="spacing" textLength="48.5215" x="760.2393" y="617.972">model</text></g><!--cluster firebase--><g class="cluster" data-qualified-name="firebase" data-source-line="150" id="ent0018"><rect fill="#E8E8E8" height="115.3" rx="2.5" ry="2.5" style="stroke:#4F81BD;stroke-width:1.5;" width="1140" x="7" y="438.3769"/><text fill="#000000" font-family="sans-serif" font-size="14" font-weight="700" lengthAdjust="spacing" textLength="64.5859" x="544.707" y="453.372">firebase</text></g><!--class LoginActivity--><g class="entity" data-qualified-name="presentation.LoginActivity" data-source-line="29" id="ent0002"><rect fill="#F8F9FA" height="80.5938" rx="2.5" ry="2.5" style="stroke:#4F81BD;stroke-width:0.5;" width="122.6172" x="645.69" y="87.4469"/><ellipse cx="660.69" cy="103.4469" fill="#ADD1B2" rx="11" ry="11" style="stroke:#181818;stroke-width:1;"/><path d="M663.6588,109.0875 Q663.0806,109.3844 662.44,109.525 Q661.7994,109.6813 661.0963,109.6813 Q658.5963,109.6813 657.2681,108.0406 Q655.9556,106.3844 655.9556,103.2594 Q655.9556,100.1344 657.2681,98.4781 Q658.5963,96.8219 661.0963,96.8219 Q661.7994,96.8219 662.44,96.9781 Q663.0963,97.1344 663.6588,97.4313 L663.6588,100.15 Q663.0338,99.5719 662.44,99.3063 Q661.8463,99.025 661.2213,99.025 Q659.8775,99.025 659.19,100.1031 Q658.5025,101.1656 658.5025,103.2594 Q658.5025,105.3531 659.19,106.4313 Q659.8775,107.4938 661.2213,107.4938 Q661.8463,107.4938 662.44,107.2281 Q663.0338,106.9469 663.6588,106.3688 L663.6588,109.0875 Z " fill="#000000"/><text fill="#000000" font-family="sans-serif" font-size="14" lengthAdjust="spacing" textLength="90.6172" x="674.69" y="108.2936">LoginActivity</text><line style="stroke:#4F81BD;stroke-width:0.5;" x1="646.69" x2="767.3072" y1="119.4469" y2="119.4469"/><line style="stroke:#4F81BD;stroke-width:0.5;" x1="646.69" x2="767.3072" y1="127.4469" y2="127.4469"/><text fill="#000000" font-family="sans-serif" font-size="14" lengthAdjust="spacing" textLength="86.9189" x="651.69" y="144.442">+onCreate()</text><text fill="#000000" font-family="sans-serif" font-size="14" lengthAdjust="spacing" textLength="56.7588" x="651.69" y="160.7389">+login()</text></g><!--class HomeActivity--><g class="entity" data-qualified-name="presentation.HomeActivity" data-source-line="34" id="ent0003"><rect fill="#F8F9FA" height="80.5938" rx="2.5" ry="2.5" style="stroke:#4F81BD;stroke-width:0.5;" width="140.7754" x="803.61" y="87.4469"/><ellipse cx="825.2831" cy="103.4469" fill="#ADD1B2" rx="11" ry="11" style="stroke:#181818;stroke-width:1;"/><path d="M828.2518,109.0875 Q827.6737,109.3844 827.0331,109.525 Q826.3925,109.6813 825.6893,109.6813 Q823.1893,109.6813 821.8612,108.0406 Q820.5487,106.3844 820.5487,103.2594 Q820.5487,100.1344 821.8612,98.4781 Q823.1893,96.8219 825.6893,96.8219 Q826.3925,96.8219 827.0331,96.9781 Q827.6893,97.1344 828.2518,97.4313 L828.2518,100.15 Q827.6268,99.5719 827.0331,99.3063 Q826.4393,99.025 825.8143,99.025 Q824.4706,99.025 823.7831,100.1031 Q823.0956,101.1656 823.0956,103.2594 Q823.0956,105.3531 823.7831,106.4313 Q824.4706,107.4938 825.8143,107.4938 Q826.4393,107.4938 827.0331,107.2281 Q827.6268,106.9469 828.2518,106.3688 L828.2518,109.0875 Z " fill="#000000"/><text fill="#000000" font-family="sans-serif" font-size="14" lengthAdjust="spacing" textLength="93.9463" x="840.766" y="108.2936">HomeActivity</text><line style="stroke:#4F81BD;stroke-width:0.5;" x1="804.61" x2="943.3854" y1="119.4469" y2="119.4469"/><line style="stroke:#4F81BD;stroke-width:0.5;" x1="804.61" x2="943.3854" y1="127.4469" y2="127.4469"/><text fill="#000000" font-family="sans-serif" font-size="14" lengthAdjust="spacing" textLength="86.9189" x="809.61" y="144.442">+onCreate()</text><text fill="#000000" font-family="sans-serif" font-size="14" lengthAdjust="spacing" textLength="128.7754" x="809.61" y="160.7389">+loadDashboard()</text></g><!--class TimerActivity--><g class="entity" data-qualified-name="presentation.TimerActivity" data-source-line="39" id="ent0004"><rect fill="#F8F9FA" height="96.8906" rx="2.5" ry="2.5" style="stroke:#4F81BD;stroke-width:0.5;" width="136.5576" x="979.72" y="79.2969"/><ellipse cx="999.8981" cy="95.2969" fill="#ADD1B2" rx="11" ry="11" style="stroke:#181818;stroke-width:1;"/><path d="M1002.8668,100.9375 Q1002.2887,101.2344 1001.6481,101.375 Q1001.0075,101.5313 1000.3043,101.5313 Q997.8043,101.5313 996.4762,99.8906 Q995.1637,98.2344 995.1637,95.1094 Q995.1637,91.9844 996.4762,90.3281 Q997.8043,88.6719 1000.3043,88.6719 Q1001.0075,88.6719 1001.6481,88.8281 Q1002.3043,88.9844 1002.8668,89.2813 L1002.8668,92 Q1002.2418,91.4219 1001.6481,91.1563 Q1001.0543,90.875 1000.4293,90.875 Q999.0856,90.875 998.3981,91.9531 Q997.7106,93.0156 997.7106,95.1094 Q997.7106,97.2031 998.3981,98.2813 Q999.0856,99.3438 1000.4293,99.3438 Q1001.0543,99.3438 1001.6481,99.0781 Q1002.2418,98.7969 1002.8668,98.2188 L1002.8668,100.9375 Z " fill="#000000"/><text fill="#000000" font-family="sans-serif" font-size="14" lengthAdjust="spacing" textLength="93.0508" x="1015.0488" y="100.1436">TimerActivity</text><line style="stroke:#4F81BD;stroke-width:0.5;" x1="980.72" x2="1115.2776" y1="111.2969" y2="111.2969"/><line style="stroke:#4F81BD;stroke-width:0.5;" x1="980.72" x2="1115.2776" y1="119.2969" y2="119.2969"/><text fill="#000000" font-family="sans-serif" font-size="14" lengthAdjust="spacing" textLength="95.71" x="985.72" y="136.292">+startTimer()</text><text fill="#000000" font-family="sans-serif" font-size="14" lengthAdjust="spacing" textLength="93.3379" x="985.72" y="152.5889">+stopTimer()</text><text fill="#000000" font-family="sans-serif" font-size="14" lengthAdjust="spacing" textLength="124.5576" x="985.72" y="168.8857">+saveExecution()</text></g><!--class AuthViewModel--><g class="entity" data-qualified-name="viewmodel.AuthViewModel" data-source-line="53" id="ent0006"><rect fill="#F8F9FA" height="96.8906" rx="2.5" ry="2.5" style="stroke:#4F81BD;stroke-width:0.5;" width="178.5303" x="585.73" y="268.3369"/><ellipse cx="617.899" cy="284.3369" fill="#ADD1B2" rx="11" ry="11" style="stroke:#181818;stroke-width:1;"/><path d="M620.8677,289.9775 Q620.2896,290.2744 619.649,290.415 Q619.0084,290.5713 618.3052,290.5713 Q615.8052,290.5713 614.4771,288.9306 Q613.1646,287.2744 613.1646,284.1494 Q613.1646,281.0244 614.4771,279.3681 Q615.8052,277.7119 618.3052,277.7119 Q619.0084,277.7119 619.649,277.8681 Q620.3052,278.0244 620.8677,278.3213 L620.8677,281.04 Q620.2427,280.4619 619.649,280.1963 Q619.0552,279.915 618.4302,279.915 Q617.0865,279.915 616.399,280.9931 Q615.7115,282.0556 615.7115,284.1494 Q615.7115,286.2431 616.399,287.3213 Q617.0865,288.3838 618.4302,288.3838 Q619.0552,288.3838 619.649,288.1181 Q620.2427,287.8369 620.8677,287.2588 L620.8677,289.9775 Z " fill="#000000"/><text fill="#000000" font-family="sans-serif" font-size="14" lengthAdjust="spacing" textLength="108.377" x="635.7143" y="289.1836">AuthViewModel</text><line style="stroke:#4F81BD;stroke-width:0.5;" x1="586.73" x2="763.2603" y1="300.3369" y2="300.3369"/><line style="stroke:#4F81BD;stroke-width:0.5;" x1="586.73" x2="763.2603" y1="308.3369" y2="308.3369"/><text fill="#000000" font-family="sans-serif" font-size="14" lengthAdjust="spacing" textLength="166.5303" x="591.73" y="325.332">+login(email,password)</text><text fill="#000000" font-family="sans-serif" font-size="14" lengthAdjust="spacing" textLength="76.9521" x="591.73" y="341.6289">+register()</text><text fill="#000000" font-family="sans-serif" font-size="14" lengthAdjust="spacing" textLength="66.9238" x="591.73" y="357.9257">+logout()</text></g><!--class HomeViewModel--><g class="entity" data-qualified-name="viewmodel.HomeViewModel" data-source-line="59" id="ent0007"><rect fill="#F8F9FA" height="80.5938" rx="2.5" ry="2.5" style="stroke:#4F81BD;stroke-width:0.5;" width="148.9082" x="799.55" y="276.4869"/><ellipse cx="814.55" cy="292.4869" fill="#ADD1B2" rx="11" ry="11" style="stroke:#181818;stroke-width:1;"/><path d="M817.5188,298.1275 Q816.9406,298.4244 816.3,298.565 Q815.6594,298.7213 814.9563,298.7213 Q812.4563,298.7213 811.1281,297.0806 Q809.8156,295.4244 809.8156,292.2994 Q809.8156,289.1744 811.1281,287.5181 Q812.4563,285.8619 814.9563,285.8619 Q815.6594,285.8619 816.3,286.0181 Q816.9563,286.1744 817.5188,286.4713 L817.5188,289.19 Q816.8938,288.6119 816.3,288.3463 Q815.7063,288.065 815.0813,288.065 Q813.7375,288.065 813.05,289.1431 Q812.3625,290.2056 812.3625,292.2994 Q812.3625,294.3931 813.05,295.4713 Q813.7375,296.5338 815.0813,296.5338 Q815.7063,296.5338 816.3,296.2681 Q816.8938,295.9869 817.5188,295.4088 L817.5188,298.1275 Z " fill="#000000"/><text fill="#000000" font-family="sans-serif" font-size="14" lengthAdjust="spacing" textLength="116.9082" x="828.55" y="297.3336">HomeViewModel</text><line style="stroke:#4F81BD;stroke-width:0.5;" x1="800.55" x2="947.4582" y1="308.4869" y2="308.4869"/><line style="stroke:#4F81BD;stroke-width:0.5;" x1="800.55" x2="947.4582" y1="316.4869" y2="316.4869"/><text fill="#000000" font-family="sans-serif" font-size="14" lengthAdjust="spacing" textLength="89.6602" x="805.55" y="333.482">+loadPosts()</text><text fill="#000000" font-family="sans-serif" font-size="14" lengthAdjust="spacing" textLength="116.5732" x="805.55" y="349.7789">+loadStatistics()</text></g><!--class TimerViewModel--><g class="entity" data-qualified-name="viewmodel.TimerViewModel" data-source-line="64" id="ent0008"><rect fill="#F8F9FA" height="113.1875" rx="2.5" ry="2.5" style="stroke:#4F81BD;stroke-width:0.5;" width="148.0127" x="982.99" y="260.1869"/><ellipse cx="997.99" cy="276.1869" fill="#ADD1B2" rx="11" ry="11" style="stroke:#181818;stroke-width:1;"/><path d="M1000.9588,281.8275 Q1000.3806,282.1244 999.74,282.265 Q999.0994,282.4213 998.3963,282.4213 Q995.8963,282.4213 994.5681,280.7806 Q993.2556,279.1244 993.2556,275.9994 Q993.2556,272.8744 994.5681,271.2181 Q995.8963,269.5619 998.3963,269.5619 Q999.0994,269.5619 999.74,269.7181 Q1000.3963,269.8744 1000.9588,270.1713 L1000.9588,272.89 Q1000.3338,272.3119 999.74,272.0463 Q999.1463,271.765 998.5213,271.765 Q997.1775,271.765 996.49,272.8431 Q995.8025,273.9056 995.8025,275.9994 Q995.8025,278.0931 996.49,279.1713 Q997.1775,280.2338 998.5213,280.2338 Q999.1463,280.2338 999.74,279.9681 Q1000.3338,279.6869 1000.9588,279.1088 L1000.9588,281.8275 Z " fill="#000000"/><text fill="#000000" font-family="sans-serif" font-size="14" lengthAdjust="spacing" textLength="116.0127" x="1011.99" y="281.0336">TimerViewModel</text><line style="stroke:#4F81BD;stroke-width:0.5;" x1="983.99" x2="1130.0027" y1="292.1869" y2="292.1869"/><line style="stroke:#4F81BD;stroke-width:0.5;" x1="983.99" x2="1130.0027" y1="300.1869" y2="300.1869"/><text fill="#000000" font-family="sans-serif" font-size="14" lengthAdjust="spacing" textLength="93.3857" x="988.99" y="317.182">+getTimers()</text><text fill="#000000" font-family="sans-serif" font-size="14" lengthAdjust="spacing" textLength="107.8506" x="988.99" y="333.4789">+createTimer()</text><text fill="#000000" font-family="sans-serif" font-size="14" lengthAdjust="spacing" textLength="107.208" x="988.99" y="349.7757">+deleteTimer()</text><text fill="#000000" font-family="sans-serif" font-size="14" lengthAdjust="spacing" textLength="80.6777" x="988.99" y="366.0726">+saveLog()</text></g><!--class TimerRepository--><g class="entity" data-qualified-name="repository.TimerRepository" data-source-line="79" id="ent0010"><rect fill="#F8F9FA" height="96.8906" rx="2.5" ry="2.5" style="stroke:#4F81BD;stroke-width:0.5;" width="216.8594" x="1186.57" y="457.0869"/><ellipse cx="1232.9894" cy="473.0869" fill="#B4A7E5" rx="11" ry="11" style="stroke:#181818;stroke-width:1;"/><path d="M1228.9113,468.8525 L1228.9113,466.6963 L1236.3019,466.6963 L1236.3019,468.8525 L1233.8332,468.8525 L1233.8332,476.9306 L1236.3019,476.9306 L1236.3019,479.0869 L1228.9113,479.0869 L1228.9113,476.9306 L1231.3801,476.9306 L1231.3801,468.8525 L1228.9113,468.8525 Z " fill="#000000"/><text fill="#000000" font-family="sans-serif" font-size="14" font-style="italic" lengthAdjust="spacing" textLength="115.5205" x="1253.4894" y="477.9336">TimerRepository</text><line style="stroke:#4F81BD;stroke-width:0.5;" x1="1187.57" x2="1402.4294" y1="489.0869" y2="489.0869"/><line style="stroke:#4F81BD;stroke-width:0.5;" x1="1187.57" x2="1402.4294" y1="497.0869" y2="497.0869"/><text fill="#000000" font-family="sans-serif" font-size="14" lengthAdjust="spacing" textLength="204.8594" x="1192.57" y="514.082">+getTimersFromUser(userId)</text><text fill="#000000" font-family="sans-serif" font-size="14" lengthAdjust="spacing" textLength="102.0195" x="1192.57" y="530.3789">+saveLog(log)</text><text fill="#000000" font-family="sans-serif" font-size="14" lengthAdjust="spacing" textLength="145.2363" x="1192.57" y="546.6757">+createTimer(timer)</text></g><!--class TimerRepositoryImpl--><g class="entity" data-qualified-name="repository.TimerRepositoryImpl" data-source-line="85" id="ent0011"><rect fill="#F8F9FA" height="64.2969" rx="2.5" ry="2.5" style="stroke:#4F81BD;stroke-width:0.5;" width="211.2881" x="1188.36" y="284.6369"/><ellipse cx="1218.3111" cy="300.6369" fill="#ADD1B2" rx="11" ry="11" style="stroke:#181818;stroke-width:1;"/><path d="M1221.2798,306.2775 Q1220.7017,306.5744 1220.0611,306.715 Q1219.4204,306.8713 1218.7173,306.8713 Q1216.2173,306.8713 1214.8892,305.2306 Q1213.5767,303.5744 1213.5767,300.4494 Q1213.5767,297.3244 1214.8892,295.6681 Q1216.2173,294.0119 1218.7173,294.0119 Q1219.4204,294.0119 1220.0611,294.1681 Q1220.7173,294.3244 1221.2798,294.6213 L1221.2798,297.34 Q1220.6548,296.7619 1220.0611,296.4963 Q1219.4673,296.215 1218.8423,296.215 Q1217.4986,296.215 1216.8111,297.2931 Q1216.1236,298.3556 1216.1236,300.4494 Q1216.1236,302.5431 1216.8111,303.6213 Q1217.4986,304.6838 1218.8423,304.6838 Q1219.4673,304.6838 1220.0611,304.4181 Q1220.6548,304.1369 1221.2798,303.5588 L1221.2798,306.2775 Z " fill="#000000"/><text fill="#000000" font-family="sans-serif" font-size="14" lengthAdjust="spacing" textLength="146.0635" x="1235.6335" y="305.4836">TimerRepositoryImpl</text><line style="stroke:#4F81BD;stroke-width:0.5;" x1="1189.36" x2="1398.6481" y1="316.6369" y2="316.6369"/><text fill="#000000" font-family="sans-serif" font-size="14" lengthAdjust="spacing" textLength="199.2881" x="1194.36" y="333.632">-firestore : FirebaseFirestore</text><line style="stroke:#4F81BD;stroke-width:0.5;" x1="1189.36" x2="1398.6481" y1="340.9338" y2="340.9338"/></g><!--class UserModel--><g class="entity" data-qualified-name="model.UserModel" data-source-line="99" id="ent0014"><rect fill="#F8F9FA" height="137.75" rx="2.5" ry="2.5" style="stroke:#4F81BD;stroke-width:0.5;" width="184.6279" x="809.69" y="646.1169"/><ellipse cx="860.7818" cy="666.2497" fill="#ADD1B2" rx="11" ry="11" style="stroke:#181818;stroke-width:1;"/><path d="M863.7505,671.8903 Q863.1724,672.1872 862.5318,672.3278 Q861.8912,672.4841 861.188,672.4841 Q858.688,672.4841 857.3599,670.8434 Q856.0474,669.1872 856.0474,666.0622 Q856.0474,662.9372 857.3599,661.2809 Q858.688,659.6247 861.188,659.6247 Q861.8912,659.6247 862.5318,659.7809 Q863.188,659.9372 863.7505,660.2341 L863.7505,662.9528 Q863.1255,662.3747 862.5318,662.1091 Q861.938,661.8278 861.313,661.8278 Q859.9693,661.8278 859.2818,662.9059 Q858.5943,663.9684 858.5943,666.0622 Q858.5943,668.1559 859.2818,669.2341 Q859.9693,670.2966 861.313,670.2966 Q861.938,670.2966 862.5318,670.0309 Q863.1255,669.7497 863.7505,669.1716 L863.7505,671.8903 Z " fill="#000000"/><text fill="#000000" font-family="sans-serif" font-size="12" font-style="italic" lengthAdjust="spacing" textLength="75.3164" x="880.5958" y="662.2555">&#171;data class&#187;</text><text fill="#000000" font-family="sans-serif" font-size="14" lengthAdjust="spacing" textLength="73.9443" x="881.2818" y="678.0807">UserModel</text><line style="stroke:#4F81BD;stroke-width:0.5;" x1="810.69" x2="993.3179" y1="686.3825" y2="686.3825"/><text fill="#000000" font-family="sans-serif" font-size="14" lengthAdjust="spacing" textLength="79.9053" x="815.69" y="703.3776">+id : String</text><text fill="#000000" font-family="sans-serif" font-size="14" lengthAdjust="spacing" textLength="106.832" x="815.69" y="719.6745">+name : String</text><text fill="#000000" font-family="sans-serif" font-size="14" lengthAdjust="spacing" textLength="105.7383" x="815.69" y="735.9714">+email : String</text><text fill="#000000" font-family="sans-serif" font-size="14" lengthAdjust="spacing" textLength="172.6279" x="815.69" y="752.2682">+createdAt : Timestamp</text><line style="stroke:#4F81BD;stroke-width:0.5;" x1="810.69" x2="993.3179" y1="759.57" y2="759.57"/><text fill="#000000" font-family="sans-serif" font-size="14" lengthAdjust="spacing" textLength="66.2539" x="815.69" y="776.5651">+toMap()</text></g><!--class TimerModel--><g class="entity" data-qualified-name="model.TimerModel" data-source-line="109" id="ent0015"><rect fill="#F8F9FA" height="170.3438" rx="2.5" ry="2.5" style="stroke:#4F81BD;stroke-width:0.5;" width="216.8184" x="777.59" y="869.0169"/><ellipse cx="840.508" cy="889.1497" fill="#ADD1B2" rx="11" ry="11" style="stroke:#181818;stroke-width:1;"/><path d="M843.4767,894.7903 Q842.8986,895.0872 842.258,895.2278 Q841.6173,895.3841 840.9142,895.3841 Q838.4142,895.3841 837.0861,893.7434 Q835.7736,892.0872 835.7736,888.9622 Q835.7736,885.8372 837.0861,884.1809 Q838.4142,882.5247 840.9142,882.5247 Q841.6173,882.5247 842.258,882.6809 Q842.9142,882.8372 843.4767,883.1341 L843.4767,885.8528 Q842.8517,885.2747 842.258,885.0091 Q841.6642,884.7278 841.0392,884.7278 Q839.6955,884.7278 839.008,885.8059 Q838.3205,886.8684 838.3205,888.9622 Q838.3205,891.0559 839.008,892.1341 Q839.6955,893.1966 841.0392,893.1966 Q841.6642,893.1966 842.258,892.9309 Q842.8517,892.6497 843.4767,892.0716 L843.4767,894.7903 Z " fill="#000000"/><text fill="#000000" font-family="sans-serif" font-size="12" font-style="italic" lengthAdjust="spacing" textLength="75.3164" x="864.591" y="885.1555">&#171;data class&#187;</text><text fill="#000000" font-family="sans-serif" font-size="14" lengthAdjust="spacing" textLength="82.4824" x="861.008" y="900.9807">TimerModel</text><line style="stroke:#4F81BD;stroke-width:0.5;" x1="778.59" x2="993.4084" y1="909.2825" y2="909.2825"/><text fill="#000000" font-family="sans-serif" font-size="14" lengthAdjust="spacing" textLength="79.9053" x="783.59" y="926.2776">+id : String</text><text fill="#000000" font-family="sans-serif" font-size="14" lengthAdjust="spacing" textLength="94.5" x="783.59" y="942.5745">+title : String</text><text fill="#000000" font-family="sans-serif" font-size="14" lengthAdjust="spacing" textLength="177.2012" x="783.59" y="958.8714">+durationSeconds : Long</text><text fill="#000000" font-family="sans-serif" font-size="14" lengthAdjust="spacing" textLength="129.001" x="783.59" y="975.1682">+category : String</text><text fill="#000000" font-family="sans-serif" font-size="14" lengthAdjust="spacing" textLength="204.8184" x="783.59" y="991.4651">+isAccessibleMode : Boolean</text><text fill="#000000" font-family="sans-serif" font-size="14" lengthAdjust="spacing" textLength="197.0186" x="783.59" y="1007.762">+lastTriggered : Timestamp</text><line style="stroke:#4F81BD;stroke-width:0.5;" x1="778.59" x2="993.4084" y1="1015.0638" y2="1015.0638"/><text fill="#000000" font-family="sans-serif" font-size="14" lengthAdjust="spacing" textLength="66.2539" x="783.59" y="1032.0589">+toMap()</text></g><!--class LogModel--><g class="entity" data-qualified-name="model.LogModel" data-source-line="121" id="ent0016"><rect fill="#F8F9FA" height="170.3438" rx="2.5" ry="2.5" style="stroke:#4F81BD;stroke-width:0.5;" width="207.3096" x="785.35" y="1116.3669"/><ellipse cx="849.0966" cy="1136.4997" fill="#ADD1B2" rx="11" ry="11" style="stroke:#181818;stroke-width:1;"/><path d="M852.0653,1142.1403 Q851.4872,1142.4372 850.8466,1142.5778 Q850.206,1142.7341 849.5028,1142.7341 Q847.0028,1142.7341 845.6747,1141.0934 Q844.3622,1139.4372 844.3622,1136.3122 Q844.3622,1133.1872 845.6747,1131.5309 Q847.0028,1129.8747 849.5028,1129.8747 Q850.206,1129.8747 850.8466,1130.0309 Q851.5028,1130.1872 852.0653,1130.4841 L852.0653,1133.2028 Q851.4403,1132.6247 850.8466,1132.3591 Q850.2528,1132.0778 849.6278,1132.0778 Q848.2841,1132.0778 847.5966,1133.1559 Q846.9091,1134.2184 846.9091,1136.3122 Q846.9091,1138.4059 847.5966,1139.4841 Q848.2841,1140.5466 849.6278,1140.5466 Q850.2528,1140.5466 850.8466,1140.2809 Q851.4403,1139.9997 852.0653,1139.4216 L852.0653,1142.1403 Z " fill="#000000"/><text fill="#000000" font-family="sans-serif" font-size="12" font-style="italic" lengthAdjust="spacing" textLength="75.3164" x="867.5966" y="1132.5055">&#171;data class&#187;</text><text fill="#000000" font-family="sans-serif" font-size="14" lengthAdjust="spacing" textLength="67.2861" x="871.6117" y="1148.3307">LogModel</text><line style="stroke:#4F81BD;stroke-width:0.5;" x1="786.35" x2="991.6596" y1="1156.6325" y2="1156.6325"/><text fill="#000000" font-family="sans-serif" font-size="14" lengthAdjust="spacing" textLength="79.9053" x="791.35" y="1173.6276">+id : String</text><text fill="#000000" font-family="sans-serif" font-size="14" lengthAdjust="spacing" textLength="110.6807" x="791.35" y="1189.9245">+userId : String</text><text fill="#000000" font-family="sans-serif" font-size="14" lengthAdjust="spacing" textLength="134.0117" x="791.35" y="1206.2214">+counterId : String</text><text fill="#000000" font-family="sans-serif" font-size="14" lengthAdjust="spacing" textLength="195.3096" x="791.35" y="1222.5182">+totalExecutionTime : Long</text><text fill="#000000" font-family="sans-serif" font-size="14" lengthAdjust="spacing" textLength="193.2725" x="791.35" y="1238.8151">+completedAt : Timestamp</text><text fill="#000000" font-family="sans-serif" font-size="14" lengthAdjust="spacing" textLength="179.4092" x="791.35" y="1255.112">+deviceMetadata : String</text><line style="stroke:#4F81BD;stroke-width:0.5;" x1="786.35" x2="991.6596" y1="1262.4138" y2="1262.4138"/><text fill="#000000" font-family="sans-serif" font-size="14" lengthAdjust="spacing" textLength="66.2539" x="791.35" y="1279.4089">+toMap()</text></g><!--class Post--><g class="entity" data-qualified-name="model.Post" data-source-line="133" id="ent0017"><rect fill="#F8F9FA" height="154.0469" rx="2.5" ry="2.5" style="stroke:#4F81BD;stroke-width:0.5;" width="199.9814" x="575.01" y="637.9769"/><ellipse cx="611.2475" cy="658.1097" fill="#ADD1B2" rx="11" ry="11" style="stroke:#181818;stroke-width:1;"/><path d="M614.2162,663.7503 Q613.6381,664.0472 612.9975,664.1878 Q612.3568,664.3441 611.6537,664.3441 Q609.1537,664.3441 607.8256,662.7034 Q606.5131,661.0472 606.5131,657.9222 Q606.5131,654.7972 607.8256,653.1409 Q609.1537,651.4847 611.6537,651.4847 Q612.3568,651.4847 612.9975,651.6409 Q613.6537,651.7972 614.2162,652.0941 L614.2162,654.8128 Q613.5912,654.2347 612.9975,653.9691 Q612.4037,653.6878 611.7787,653.6878 Q610.435,653.6878 609.7475,654.7659 Q609.06,655.8284 609.06,657.9222 Q609.06,660.0159 609.7475,661.0941 Q610.435,662.1566 611.7787,662.1566 Q612.4037,662.1566 612.9975,661.8909 Q613.5912,661.6097 614.2162,661.0316 L614.2162,663.7503 Z " fill="#000000"/><text fill="#000000" font-family="sans-serif" font-size="12" font-style="italic" lengthAdjust="spacing" textLength="124.7871" x="627.9669" y="654.1155">&#171;@Keep Data Class&#187;</text><text fill="#000000" font-family="sans-serif" font-size="14" lengthAdjust="spacing" textLength="29.791" x="675.4649" y="669.9407">Post</text><line style="stroke:#4F81BD;stroke-width:0.5;" x1="576.01" x2="773.9914" y1="678.2425" y2="678.2425"/><text fill="#000000" font-family="sans-serif" font-size="14" lengthAdjust="spacing" textLength="79.9053" x="581.01" y="695.2376">+id : String</text><text fill="#000000" font-family="sans-serif" font-size="14" lengthAdjust="spacing" textLength="94.5" x="581.01" y="711.5345">+title : String</text><text fill="#000000" font-family="sans-serif" font-size="14" lengthAdjust="spacing" textLength="120.7295" x="581.01" y="727.8314">+content : String</text><text fill="#000000" font-family="sans-serif" font-size="14" lengthAdjust="spacing" textLength="187.9814" x="581.01" y="744.1282">+publishDate : Timestamp</text><text fill="#000000" font-family="sans-serif" font-size="14" lengthAdjust="spacing" textLength="113.2646" x="581.01" y="760.4251">+author : String</text><line style="stroke:#4F81BD;stroke-width:0.5;" x1="576.01" x2="773.9914" y1="767.7269" y2="767.7269"/><text fill="#000000" font-family="sans-serif" font-size="14" lengthAdjust="spacing" textLength="66.2539" x="581.01" y="784.722">+toMap()</text></g><!--class FirebaseAuth--><g class="entity" data-qualified-name="firebase.FirebaseAuth" data-source-line="152" id="ent0019"><rect fill="#F8F9FA" height="48" rx="2.5" ry="2.5" style="stroke:#4F81BD;stroke-width:0.5;" width="124.4971" x="22.75" y="481.5269"/><ellipse cx="37.75" cy="497.5269" fill="#ADD1B2" rx="11" ry="11" style="stroke:#181818;stroke-width:1;"/><path d="M40.7188,503.1675 Q40.1406,503.4644 39.5,503.605 Q38.8594,503.7613 38.1563,503.7613 Q35.6563,503.7613 34.3281,502.1206 Q33.0156,500.4644 33.0156,497.3394 Q33.0156,494.2144 34.3281,492.5581 Q35.6563,490.9019 38.1563,490.9019 Q38.8594,490.9019 39.5,491.0581 Q40.1563,491.2144 40.7188,491.5113 L40.7188,494.23 Q40.0938,493.6519 39.5,493.3863 Q38.9063,493.105 38.2813,493.105 Q36.9375,493.105 36.25,494.1831 Q35.5625,495.2456 35.5625,497.3394 Q35.5625,499.4331 36.25,500.5113 Q36.9375,501.5738 38.2813,501.5738 Q38.9063,501.5738 39.5,501.3081 Q40.0938,501.0269 40.7188,500.4488 L40.7188,503.1675 Z " fill="#000000"/><text fill="#000000" font-family="sans-serif" font-size="14" lengthAdjust="spacing" textLength="92.4971" x="51.75" y="502.3736">FirebaseAuth</text><line style="stroke:#4F81BD;stroke-width:0.5;" x1="23.75" x2="146.2471" y1="513.5269" y2="513.5269"/><line style="stroke:#4F81BD;stroke-width:0.5;" x1="23.75" x2="146.2471" y1="521.5269" y2="521.5269"/></g><!--class FirebaseFirestore--><g class="entity" data-qualified-name="firebase.FirebaseFirestore" data-source-line="154" id="ent0020"><rect fill="#F8F9FA" height="48" rx="2.5" ry="2.5" style="stroke:#4F81BD;stroke-width:0.5;" width="153.7139" x="182.14" y="481.5269"/><ellipse cx="197.14" cy="497.5269" fill="#ADD1B2" rx="11" ry="11" style="stroke:#181818;stroke-width:1;"/><path d="M200.1088,503.1675 Q199.5306,503.4644 198.89,503.605 Q198.2494,503.7613 197.5463,503.7613 Q195.0463,503.7613 193.7181,502.1206 Q192.4056,500.4644 192.4056,497.3394 Q192.4056,494.2144 193.7181,492.5581 Q195.0463,490.9019 197.5463,490.9019 Q198.2494,490.9019 198.89,491.0581 Q199.5463,491.2144 200.1088,491.5113 L200.1088,494.23 Q199.4838,493.6519 198.89,493.3863 Q198.2963,493.105 197.6713,493.105 Q196.3275,493.105 195.64,494.1831 Q194.9525,495.2456 194.9525,497.3394 Q194.9525,499.4331 195.64,500.5113 Q196.3275,501.5738 197.6713,501.5738 Q198.2963,501.5738 198.89,501.3081 Q199.4838,501.0269 200.1088,500.4488 L200.1088,503.1675 Z " fill="#000000"/><text fill="#000000" font-family="sans-serif" font-size="14" lengthAdjust="spacing" textLength="121.7139" x="211.14" y="502.3736">FirebaseFirestore</text><line style="stroke:#4F81BD;stroke-width:0.5;" x1="183.14" x2="334.8539" y1="513.5269" y2="513.5269"/><line style="stroke:#4F81BD;stroke-width:0.5;" x1="183.14" x2="334.8539" y1="521.5269" y2="521.5269"/></g><!--class UsersCollection--><g class="entity" data-qualified-name="firebase.UsersCollection" data-source-line="156" id="ent0021"><rect fill="#F8F9FA" height="64.2969" rx="2.5" ry="2.5" style="stroke:#4F81BD;stroke-width:0.5;" width="140.4521" x="821.77" y="473.3769"/><ellipse cx="836.77" cy="489.3769" fill="#ADD1B2" rx="11" ry="11" style="stroke:#181818;stroke-width:1;"/><path d="M839.7388,495.0175 Q839.1606,495.3144 838.52,495.455 Q837.8794,495.6113 837.1763,495.6113 Q834.6763,495.6113 833.3481,493.9706 Q832.0356,492.3144 832.0356,489.1894 Q832.0356,486.0644 833.3481,484.4081 Q834.6763,482.7519 837.1763,482.7519 Q837.8794,482.7519 838.52,482.9081 Q839.1763,483.0644 839.7388,483.3613 L839.7388,486.08 Q839.1138,485.5019 838.52,485.2363 Q837.9263,484.955 837.3013,484.955 Q835.9575,484.955 835.27,486.0331 Q834.5825,487.0956 834.5825,489.1894 Q834.5825,491.2831 835.27,492.3613 Q835.9575,493.4238 837.3013,493.4238 Q837.9263,493.4238 838.52,493.1581 Q839.1138,492.8769 839.7388,492.2988 L839.7388,495.0175 Z " fill="#000000"/><text fill="#000000" font-family="sans-serif" font-size="14" lengthAdjust="spacing" textLength="108.4521" x="850.77" y="494.2236">UsersCollection</text><line style="stroke:#4F81BD;stroke-width:0.5;" x1="822.77" x2="961.2221" y1="505.3769" y2="505.3769"/><text fill="#000000" font-family="sans-serif" font-size="14" lengthAdjust="spacing" textLength="108.6299" x="827.77" y="522.372">/users/{userId}</text><line style="stroke:#4F81BD;stroke-width:0.5;" x1="822.77" x2="961.2221" y1="529.6738" y2="529.6738"/></g><!--class TimersSubcollection--><g class="entity" data-qualified-name="firebase.TimersSubcollection" data-source-line="160" id="ent0022"><rect fill="#F8F9FA" height="64.2969" rx="2.5" ry="2.5" style="stroke:#4F81BD;stroke-width:0.5;" width="242.959" x="370.52" y="473.3769"/><ellipse cx="416.9702" cy="489.3769" fill="#ADD1B2" rx="11" ry="11" style="stroke:#181818;stroke-width:1;"/><path d="M419.9389,495.0175 Q419.3608,495.3144 418.7202,495.455 Q418.0796,495.6113 417.3764,495.6113 Q414.8764,495.6113 413.5483,493.9706 Q412.2358,492.3144 412.2358,489.1894 Q412.2358,486.0644 413.5483,484.4081 Q414.8764,482.7519 417.3764,482.7519 Q418.0796,482.7519 418.7202,482.9081 Q419.3764,483.0644 419.9389,483.3613 L419.9389,486.08 Q419.3139,485.5019 418.7202,485.2363 Q418.1264,484.955 417.5014,484.955 Q416.1577,484.955 415.4702,486.0331 Q414.7827,487.0956 414.7827,489.1894 Q414.7827,491.2831 415.4702,492.3613 Q416.1577,493.4238 417.5014,493.4238 Q418.1264,493.4238 418.7202,493.1581 Q419.3139,492.8769 419.9389,492.2988 L419.9389,495.0175 Z " fill="#000000"/><text fill="#000000" font-family="sans-serif" font-size="14" lengthAdjust="spacing" textLength="141.5586" x="437.4702" y="494.2236">TimersSubcollection</text><line style="stroke:#4F81BD;stroke-width:0.5;" x1="371.52" x2="612.479" y1="505.3769" y2="505.3769"/><text fill="#000000" font-family="sans-serif" font-size="14" lengthAdjust="spacing" textLength="230.959" x="376.52" y="522.372">/users/{userId}/timers/{timerId}</text><line style="stroke:#4F81BD;stroke-width:0.5;" x1="371.52" x2="612.479" y1="529.6738" y2="529.6738"/></g><!--class LogsCollection--><g class="entity" data-qualified-name="firebase.LogsCollection" data-source-line="164" id="ent0023"><rect fill="#F8F9FA" height="64.2969" rx="2.5" ry="2.5" style="stroke:#4F81BD;stroke-width:0.5;" width="133.7939" x="997.1" y="473.3769"/><ellipse cx="1012.1" cy="489.3769" fill="#ADD1B2" rx="11" ry="11" style="stroke:#181818;stroke-width:1;"/><path d="M1015.0688,495.0175 Q1014.4906,495.3144 1013.85,495.455 Q1013.2094,495.6113 1012.5063,495.6113 Q1010.0063,495.6113 1008.6781,493.9706 Q1007.3656,492.3144 1007.3656,489.1894 Q1007.3656,486.0644 1008.6781,484.4081 Q1010.0063,482.7519 1012.5063,482.7519 Q1013.2094,482.7519 1013.85,482.9081 Q1014.5063,483.0644 1015.0688,483.3613 L1015.0688,486.08 Q1014.4438,485.5019 1013.85,485.2363 Q1013.2563,484.955 1012.6313,484.955 Q1011.2875,484.955 1010.6,486.0331 Q1009.9125,487.0956 1009.9125,489.1894 Q1009.9125,491.2831 1010.6,492.3613 Q1011.2875,493.4238 1012.6313,493.4238 Q1013.2563,493.4238 1013.85,493.1581 Q1014.4438,492.8769 1015.0688,492.2988 L1015.0688,495.0175 Z " fill="#000000"/><text fill="#000000" font-family="sans-serif" font-size="14" lengthAdjust="spacing" textLength="101.7939" x="1026.1" y="494.2236">LogsCollection</text><line style="stroke:#4F81BD;stroke-width:0.5;" x1="998.1" x2="1129.8939" y1="505.3769" y2="505.3769"/><text fill="#000000" font-family="sans-serif" font-size="14" lengthAdjust="spacing" textLength="90.2412" x="1003.1" y="522.372">/logs/{logId}</text><line style="stroke:#4F81BD;stroke-width:0.5;" x1="998.1" x2="1129.8939" y1="529.6738" y2="529.6738"/></g><!--class PostsCollection--><g class="entity" data-qualified-name="firebase.PostsCollection" data-source-line="168" id="ent0024"><rect fill="#F8F9FA" height="64.2969" rx="2.5" ry="2.5" style="stroke:#4F81BD;stroke-width:0.5;" width="138.333" x="648.83" y="473.3769"/><ellipse cx="663.83" cy="489.3769" fill="#ADD1B2" rx="11" ry="11" style="stroke:#181818;stroke-width:1;"/><path d="M666.7988,495.0175 Q666.2206,495.3144 665.58,495.455 Q664.9394,495.6113 664.2363,495.6113 Q661.7363,495.6113 660.4081,493.9706 Q659.0956,492.3144 659.0956,489.1894 Q659.0956,486.0644 660.4081,484.4081 Q661.7363,482.7519 664.2363,482.7519 Q664.9394,482.7519 665.58,482.9081 Q666.2363,483.0644 666.7988,483.3613 L666.7988,486.08 Q666.1738,485.5019 665.58,485.2363 Q664.9863,484.955 664.3613,484.955 Q663.0175,484.955 662.33,486.0331 Q661.6425,487.0956 661.6425,489.1894 Q661.6425,491.2831 662.33,492.3613 Q663.0175,493.4238 664.3613,493.4238 Q664.9863,493.4238 665.58,493.1581 Q666.1738,492.8769 666.7988,492.2988 L666.7988,495.0175 Z " fill="#000000"/><text fill="#000000" font-family="sans-serif" font-size="14" lengthAdjust="spacing" textLength="106.333" x="677.83" y="494.2236">PostsCollection</text><line style="stroke:#4F81BD;stroke-width:0.5;" x1="649.83" x2="786.163" y1="505.3769" y2="505.3769"/><text fill="#000000" font-family="sans-serif" font-size="14" lengthAdjust="spacing" textLength="108.0283" x="654.83" y="522.372">/posts/{postId}</text><line style="stroke:#4F81BD;stroke-width:0.5;" x1="649.83" x2="786.163" y1="529.6738" y2="529.6738"/></g><!--link TimerRepositoryImpl to TimerRepository--><g class="link" data-entity-1="ent0011" data-entity-2="ent0010" data-link-type="extension" data-source-line="89" id="lnk12"><path codeLine="89" d="M1294.17,349.0369 C1294.32,378.4269 1294.4643,404.8271 1294.6443,438.6771" fill="none" id="TimerRepositoryImpl-to-TimerRepository" style="stroke:#404040;stroke-width:1;stroke-dasharray:7,7;"/><polygon fill="none" points="1294.74,456.6769,1300.6442,438.6452,1288.6444,438.709,1294.74,456.6769" style="stroke:#404040;stroke-width:1;stroke-linejoin:miter;stroke-miterlimit:10;"/></g><!--link LoginActivity to AuthViewModel--><g class="link" data-entity-1="ent0002" data-entity-2="ent0006" data-link-type="dependency" data-source-line="178" id="lnk25"><path codeLine="178" d="M700.21,168.4169 C695.24,197.4769 689.3125,232.1284 684.0425,262.9584" fill="none" id="LoginActivity-to-AuthViewModel" style="stroke:#404040;stroke-width:1;"/><polygon fill="#404040" points="683.2,267.8869,688.6593,259.6895,684.0425,262.9584,680.7736,258.3416,683.2,267.8869" style="stroke:#404040;stroke-width:1;stroke-linejoin:miter;stroke-miterlimit:10;"/></g><!--link HomeActivity to HomeViewModel--><g class="link" data-entity-1="ent0003" data-entity-2="ent0007" data-link-type="dependency" data-source-line="179" id="lnk26"><path codeLine="179" d="M874,168.4169 C874,200.1569 874,239.4469 874,271.1769" fill="none" id="HomeActivity-to-HomeViewModel" style="stroke:#404040;stroke-width:1;"/><polygon fill="#404040" points="874,276.1769,878,267.1769,874,271.1769,870,267.1769,874,276.1769" style="stroke:#404040;stroke-width:1;stroke-linejoin:miter;stroke-miterlimit:10;"/></g><!--link TimerActivity to TimerViewModel--><g class="link" data-entity-1="ent0004" data-entity-2="ent0008" data-link-type="dependency" data-source-line="180" id="lnk27"><path codeLine="180" d="M1050.29,176.4269 C1051.52,201.8669 1052.7895,228.3127 1054.0695,254.8927" fill="none" id="TimerActivity-to-TimerViewModel" style="stroke:#404040;stroke-width:1;"/><polygon fill="#404040" points="1054.31,259.8869,1057.8725,250.7049,1054.0695,254.8927,1049.8817,251.0897,1054.31,259.8869" style="stroke:#404040;stroke-width:1;stroke-linejoin:miter;stroke-miterlimit:10;"/></g><!--link AuthViewModel to FirebaseAuth--><g class="link" data-entity-1="ent0006" data-entity-2="ent0019" data-link-type="dependency" data-source-line="186" id="lnk28"><path codeLine="186" d="M585.37,323.3269 C479.53,332.9969 300.75,359.2969 165,430.3769 C141.01,442.9369 122.1885,460.8758 107.3085,477.5558" fill="none" id="AuthViewModel-to-FirebaseAuth" style="stroke:#404040;stroke-width:1;stroke-dasharray:7,7;"/><polygon fill="#404040" points="103.98,481.2869,112.9562,477.2336,107.3085,477.5558,106.9864,471.9081,103.98,481.2869" style="stroke:#404040;stroke-width:1;stroke-linejoin:miter;stroke-miterlimit:10;"/><text fill="#000000" font-family="sans-serif" font-size="13" lengthAdjust="spacing" textLength="94.5039" x="218" y="418.4438">authentication</text></g><!--link HomeViewModel to TimerRepository--><g class="link" data-entity-1="ent0007" data-entity-2="ent0010" data-link-type="dependency" data-source-line="188" id="lnk29"><path codeLine="188" d="M910.04,357.3769 C925.55,372.1269 944.77,387.6269 965,397.3769 C1039.06,433.0669 1069.01,404.3669 1147,430.3769 C1167.99,437.3769 1185.2589,444.6792 1205.4089,454.5392" fill="none" id="HomeViewModel-to-TimerRepository" style="stroke:#404040;stroke-width:1;"/><polygon fill="#404040" points="1209.9,456.7369,1203.5741,449.1882,1205.4089,454.5392,1200.0578,456.374,1209.9,456.7369" style="stroke:#404040;stroke-width:1;stroke-linejoin:miter;stroke-miterlimit:10;"/></g><!--link TimerViewModel to TimerRepository--><g class="link" data-entity-1="ent0008" data-entity-2="ent0010" data-link-type="dependency" data-source-line="189" id="lnk30"><path codeLine="189" d="M1128.41,373.8169 C1162.09,400.2469 1197.9265,428.3601 1230.1665,453.6601" fill="none" id="TimerViewModel-to-TimerRepository" style="stroke:#404040;stroke-width:1;"/><polygon fill="#404040" points="1234.1,456.7469,1229.4892,448.044,1230.1665,453.6601,1224.5504,454.3375,1234.1,456.7469" style="stroke:#404040;stroke-width:1;stroke-linejoin:miter;stroke-miterlimit:10;"/></g><!--link TimerRepositoryImpl to FirebaseFirestore--><g class="link" data-entity-1="ent0011" data-entity-2="ent0020" data-link-type="dependency" data-source-line="195" id="lnk31"><path codeLine="195" d="M1248.66,349.3669 C1220.71,366.9869 1183.37,387.3569 1147,397.3769 C976.75,444.2969 518.6,369.0469 353,430.3769 C324.54,440.9169 301.5136,460.0294 283.9336,477.5294" fill="none" id="TimerRepositoryImpl-to-FirebaseFirestore" style="stroke:#404040;stroke-width:1;"/><polygon fill="#404040" points="280.39,481.0569,289.5904,477.5423,283.9336,477.5294,283.9465,471.8726,280.39,481.0569" style="stroke:#404040;stroke-width:1;stroke-linejoin:miter;stroke-miterlimit:10;"/></g><!--link UserModel to TimerModel--><g class="link" data-entity-1="ent0014" data-entity-2="ent0015" data-link-type="dependency" data-source-line="201" id="lnk32"><path codeLine="201" d="M897.39,784.2869 C895.62,810.5569 893.9176,835.8983 892.0476,863.5283" fill="none" id="UserModel-to-TimerModel" style="stroke:#404040;stroke-width:1;"/><polygon fill="#404040" points="891.71,868.5169,896.3086,859.8075,892.0476,863.5283,888.3269,859.2673,891.71,868.5169" style="stroke:#404040;stroke-width:1;stroke-linejoin:miter;stroke-miterlimit:10;"/><text fill="#000000" font-family="sans-serif" font-size="13" lengthAdjust="spacing" textLength="33.5981" x="895" y="835.0838">owns</text><text fill="#000000" font-family="sans-serif" font-size="13" lengthAdjust="spacing" textLength="8.271" x="888.5554" y="803.9198">1</text><text fill="#000000" font-family="sans-serif" font-size="13" lengthAdjust="spacing" textLength="23.0356" x="868.2321" y="857.8735">0..*</text></g><!--link TimerModel to LogModel--><g class="link" data-entity-1="ent0015" data-entity-2="ent0016" data-link-type="dependency" data-source-line="203" id="lnk33"><path codeLine="203" d="M887.03,1039.6269 C887.33,1064.2969 887.5972,1086.2673 887.9072,1110.9473" fill="none" id="TimerModel-to-LogModel" style="stroke:#404040;stroke-width:1;"/><polygon fill="#404040" points="887.97,1115.9469,891.8566,1106.8973,887.9072,1110.9473,883.8573,1106.9978,887.97,1115.9469" style="stroke:#404040;stroke-width:1;stroke-linejoin:miter;stroke-miterlimit:10;"/><text fill="#000000" font-family="sans-serif" font-size="13" lengthAdjust="spacing" textLength="65.6665" x="888" y="1082.4338">generates</text><text fill="#000000" font-family="sans-serif" font-size="13" lengthAdjust="spacing" textLength="8.271" x="878.7953" y="1059.3957">1</text><text fill="#000000" font-family="sans-serif" font-size="13" lengthAdjust="spacing" textLength="23.0356" x="863.9334" y="1105.3101">0..*</text></g><!--link UsersCollection to UserModel--><g class="link" data-entity-1="ent0021" data-entity-2="ent0014" data-link-type="dependency" data-source-line="209" id="lnk34"><path codeLine="209" d="M893.52,538.0369 C894.9,566.6069 896.7284,604.6827 898.4884,641.0627" fill="none" id="UsersCollection-to-UserModel" style="stroke:#404040;stroke-width:1;stroke-dasharray:7,7;"/><polygon fill="#404040" points="898.73,646.0569,902.2904,636.8741,898.4884,641.0627,894.2998,637.2607,898.73,646.0569" style="stroke:#404040;stroke-width:1;stroke-linejoin:miter;stroke-miterlimit:10;"/></g><!--link TimersSubcollection to TimerModel--><g class="link" data-entity-1="ent0022" data-entity-2="ent0015" data-link-type="dependency" data-source-line="210" id="lnk35"><path codeLine="210" d="M490.92,538.1169 C490.63,595.0769 497.77,716.0969 558,792.0169 C612.81,861.1169 700.0444,901.1429 772.6744,924.7229" fill="none" id="TimersSubcollection-to-TimerModel" style="stroke:#404040;stroke-width:1;stroke-dasharray:7,7;"/><polygon fill="#404040" points="777.43,926.2669,770.105,919.6832,772.6744,924.7229,767.6347,927.2923,777.43,926.2669" style="stroke:#404040;stroke-width:1;stroke-linejoin:miter;stroke-miterlimit:10;"/></g><!--link LogsCollection to LogModel--><g class="link" data-entity-1="ent0023" data-entity-2="ent0016" data-link-type="dependency" data-source-line="211" id="lnk36"><path codeLine="211" d="M1066.75,537.9369 C1072.95,622.4369 1082.39,860.3069 1012,1039.3669 C1001.38,1066.3869 987.829,1088.7437 970.279,1112.0337" fill="none" id="LogsCollection-to-LogModel" style="stroke:#404040;stroke-width:1;stroke-dasharray:7,7;"/><polygon fill="#404040" points="967.27,1116.0269,975.8808,1111.2464,970.279,1112.0337,969.4917,1106.4319,967.27,1116.0269" style="stroke:#404040;stroke-width:1;stroke-linejoin:miter;stroke-miterlimit:10;"/></g><!--link PostsCollection to Post--><g class="link" data-entity-1="ent0024" data-entity-2="ent0017" data-link-type="dependency" data-source-line="212" id="lnk37"><path codeLine="212" d="M711.47,538.0369 C706,564.4469 698.9647,598.3709 691.8247,632.8209" fill="none" id="PostsCollection-to-Post" style="stroke:#404040;stroke-width:1;stroke-dasharray:7,7;"/><polygon fill="#404040" points="690.81,637.7169,696.5533,629.7159,691.8247,632.8209,688.7197,628.0924,690.81,637.7169" style="stroke:#404040;stroke-width:1;stroke-linejoin:miter;stroke-miterlimit:10;"/></g><?plantuml-src hLPVRvj847_dKwpSXxRNnavolJQ9UjOHUsdH6TioRavvNCC4hufPjBkEc-RotMyMZ36OgDTY8u6PcHtctszcDDSna3drffEPwvCJyiKRaVFk7sGmidsV35txqypso2llviOZRuZZpkYrxTFNbgM-yYHbagt8WWLV8odMIJWGiP1ai-GQzlXgoKAnuKb4xbYizZafdcGH-Fe1ZP0GQ9P4yRv043EbRAqbNwmrk858VFuToAbrg8GyMWH_rqA687D3NhnpBiwkXzQJLLTP2DSiV-5SE9UE_QmYGxUb59k2V6gkgdwUQ91tB81dl-4u7-ZxmsyCB-tVJpDbB__yrP_raandrAVZkJrt9sCoic_fh8q-guXk9vMW8D5CSv5qqDe1fOw3FbfvG4SYueaTQ7xFzSFMzJSY6KXW6bwzpjzZ8uGlJyMfps85Fpx4mY5JouLWCjm_FEShaFNJIZEfCqvnNccHLWdi7kWt2DR6bLnXsw3VkFGVRpAaesD6_9x3PYL2Y4su7UUSdfNXjjTwUODyp_0Bt_Fmmehn-6sAKXiihwtF4YAkT1a351LhNKz5WqOMJeNIQZyPlYa2fNcW3h9ne222F1ax1K6Msqe-K1ng99CYhAZZ96T6fnFVdKzcjyVCZeHKAAw5VEXac3uV34nwIlXd3irsKWSHSQHOVL7eynflRbZp71FK435jxlMWbzzmLsaH-PCxZe158f0huk3_1LFW53IZeUbij_jllwwqVGA64yzsnwH7ZWwH0XxEa5xI3oKyJ5ppElpuCMIQvLs_tpSIML1vY67nSQuaKKv8s0fgf0n8DLgUZD3MI3TnmdQpIhSwjV1OUW29dpD3P_EuIWlNCkkwFk3y2nLoHs9d3reJcUgg7k7A3W9GYYzYC0OW-rg865YoXJ5JUYvv5864yF-uWYNvSuxaHLsF7ev1tK3NGhDurvADCLKd1TOc78PzsptkUG0UQ9OPjbFyZ2Eccw4JV_qDa9AXEJ7ubPnW9ZHEmnerNIzYhfQe5WuDPTYoSSu_Rs1Rc1NBsN6WTRVj6OWkUc6k4br5Ep53g4uhMymU51MkE36kTvZSRNlgcVfGlSUyJ9vgc57-UX7yu4WlwuNudZqhEh1O6xw87HMbyLwHpQRReN1goBr7yzYA7tKlE-cNAqEhT5NNhXFKMzaChCg2PTYLCMzLLoZ3huxnewr5gBaSmwqyhcu-tMw_Keu8BuCpX2OFigPfMTN5PkVZte2hhIvD8aVRG52tmQcFB-s0sZI-ZUKDG6nbEzQiExz55qPPwVgjZ2xdSkUiavdREUrsV-liZyeh8ZQ9sZhOABmRHbSaWWHmEe9gYquwyrr_JiS3IZnxEdN7drexkjzMJ9tkdBUQcfoHA5ssQZtCS0kthNhFCan3-my0?></g></svg>